<svg id="Layer_4" data-name="Layer 4" xmlns="http://www.w3.org/2000/svg" xmlns:xlink="http://www.w3.org/1999/xlink" viewBox="0 0 2918.64 2432.2"><defs><linearGradient id="Безымянный_градиент" x1="1422.47" y1="1825.64" x2="1667.29" y2="1303.13" gradientTransform="matrix(1, 0, 0, -1, -72.34, 2073.07)" gradientUnits="userSpaceOnUse"><stop offset="0" stop-color="#ffb255"/><stop offset="1" stop-color="#d88d35"/></linearGradient><linearGradient id="Безымянный_градиент_2" x1="1736.77" y1="1407.96" x2="1574.27" y2="746.07" xlink:href="#Безымянный_градиент"/><linearGradient id="Безымянный_градиент_3" x1="1923.68" y1="689.95" x2="2063.95" y2="689.95" gradientTransform="matrix(1, 0, 0, -1, 368.47, 2432.01)" xlink:href="#Безымянный_градиент"/><linearGradient id="Безымянный_градиент_4" x1="1706.44" y1="1190.95" x2="1439.07" y2="1752.77" gradientTransform="matrix(1, 0, 0, -1, 368.47, 2432.01)" gradientUnits="userSpaceOnUse"><stop offset="0" stop-color="#fbfbfb"/><stop offset="1" stop-color="#e5e5e5"/></linearGradient><linearGradient id="Безымянный_градиент_5" x1="1413.18" y1="840.41" x2="1988.05" y2="2368.13" xlink:href="#Безымянный_градиент_4"/><linearGradient id="Безымянный_градиент_6" x1="1426.35" y1="875.39" x2="1962.67" y2="2300.7" xlink:href="#Безымянный_градиент_4"/><linearGradient id="Безымянный_градиент_7" x1="1530.46" y1="1817.94" x2="1614.13" y2="2040.28" xlink:href="#Безымянный_градиент_4"/><linearGradient id="Безымянный_градиент_8" x1="486.64" y1="866.88" x2="834" y2="866.88" gradientTransform="matrix(0.76, 0.05, -0.43, -0.86, 1993.29, 1774.99)" gradientUnits="userSpaceOnUse"><stop offset="0" stop-color="#3abaf9"/><stop offset="1" stop-color="#267ebd"/></linearGradient><linearGradient id="Безымянный_градиент_9" x1="486.64" y1="843.09" x2="607.04" y2="843.09" gradientTransform="matrix(0.76, 0.05, -0.43, -0.86, 1993.29, 1774.99)" gradientUnits="userSpaceOnUse"><stop offset="0" stop-color="#fe7f0a"/><stop offset="1" stop-color="#ffb538"/></linearGradient><linearGradient id="Безымянный_градиент_10" x1="560.58" y1="811.48" x2="734.51" y2="811.48" xlink:href="#Безымянный_градиент_9"/><linearGradient id="Безымянный_градиент_11" x1="600.48" y1="951.66" x2="640.1" y2="951.66" gradientTransform="matrix(0.76, 0.05, -0.43, -0.86, 1552.48, 1416.05)" xlink:href="#Безымянный_градиент_4"/><linearGradient id="Безымянный_градиент_12" x1="1278.68" y1="1651.41" x2="1803.01" y2="1651.41" gradientTransform="matrix(1, -0.01, 0, -1, 368.47, 2385.33)" xlink:href="#Безымянный_градиент_9"/><linearGradient id="Безымянный_градиент_13" x1="-4005.45" y1="1486.46" x2="-4637.19" y2="938.79" gradientTransform="translate(-3022.77 2073.07) rotate(180)" gradientUnits="userSpaceOnUse"><stop offset="0" stop-color="#ffb255"/><stop offset="1" stop-color="#ffe7b6"/></linearGradient><linearGradient id="Безымянный_градиент_14" x1="-4354.38" y1="734.73" x2="-4494.29" y2="1249.07" gradientTransform="translate(-3022.77 2073.07) rotate(180)" gradientUnits="userSpaceOnUse"><stop offset="0" stop-color="#ffb255"/><stop offset="1" stop-color="#ffca85"/></linearGradient><linearGradient id="Безымянный_градиент_15" x1="-4361.75" y1="738.33" x2="-4500.73" y2="1249.29" gradientTransform="translate(-3022.77 2073.07) rotate(180)" gradientUnits="userSpaceOnUse"><stop offset="0" stop-color="#fff"/><stop offset="1" stop-color="#ffe7b6"/></linearGradient><linearGradient id="Безымянный_градиент_16" x1="1193.73" y1="451.13" x2="855.8" y2="757.15" gradientTransform="matrix(1, 0, 0, -1, 440.81, 2073.06)" xlink:href="#Безымянный_градиент_9"/><linearGradient id="Безымянный_градиент_17" x1="1108.23" y1="915.2" x2="1108.23" y2="154.2" gradientTransform="matrix(1, 0, 0, -1, 440.81, 2073.06)" xlink:href="#Безымянный_градиент_9"/><linearGradient id="Безымянный_градиент_18" x1="1128.99" y1="775.35" x2="1067.86" y2="38.02" gradientTransform="matrix(1, 0, 0, -1, 440.81, 2073.06)" xlink:href="#Безымянный_градиент_4"/><linearGradient id="Безымянный_градиент_19" x1="1238.94" y1="693.01" x2="1347.68" y2="693.01" gradientTransform="matrix(1, 0, 0, -1, 440.81, 2073.06)" gradientUnits="userSpaceOnUse"><stop offset="0" stop-color="#a8a7a7"/><stop offset="1" stop-color="#e5e5e5"/></linearGradient><linearGradient id="Безымянный_градиент_20" x1="1092.72" y1="898.64" x2="949.57" y2="1028.28" gradientTransform="matrix(1, 0, 0, -1, 440.81, 2073.06)" xlink:href="#Безымянный_градиент_9"/><linearGradient id="Безымянный_градиент_21" x1="542" y1="807" x2="204.08" y2="1113.03" gradientTransform="matrix(1, 0, 0, -1, 440.81, 2073.06)" xlink:href="#Безымянный_градиент_8"/><linearGradient id="Безымянный_градиент_22" x1="456.5" y1="1271.07" x2="456.5" y2="510.07" gradientTransform="matrix(1, 0, 0, -1, 440.81, 2073.06)" xlink:href="#Безымянный_градиент_8"/><linearGradient id="Безымянный_градиент_23" x1="477.26" y1="1131.23" x2="416.13" y2="393.89" gradientTransform="matrix(1, 0, 0, -1, 440.81, 2073.06)" xlink:href="#Безымянный_градиент_4"/><linearGradient id="Безымянный_градиент_24" x1="587.21" y1="1048.88" x2="695.95" y2="1048.88" xlink:href="#Безымянный_градиент_19"/><linearGradient id="Безымянный_градиент_25" x1="440.99" y1="1254.51" x2="297.84" y2="1384.15" gradientTransform="matrix(1, 0, 0, -1, 440.81, 2073.06)" xlink:href="#Безымянный_градиент_8"/><linearGradient id="Безымянный_градиент_26" x1="-3332.43" y1="12665.83" x2="-3409.54" y2="12778.94" gradientTransform="matrix(-1.06, -0.13, -0.13, 1.06, -1699.61, -12492.89)" gradientUnits="userSpaceOnUse"><stop offset="0" stop-color="#7f7f7f"/><stop offset="1" stop-color="#444"/></linearGradient><linearGradient id="Безымянный_градиент_27" x1="-3489.93" y1="12982.05" x2="-3382.81" y2="12982.05" gradientTransform="matrix(-0.99, -0.12, -0.12, 0.99, -1430.94, -11969.66)" xlink:href="#Безымянный_градиент_26"/><linearGradient id="Безымянный_градиент_28" x1="-3482.89" y1="12917.93" x2="-3530.34" y2="12987.52" gradientTransform="matrix(-0.99, -0.12, -0.12, 0.99, -1430.94, -11969.66)" xlink:href="#Безымянный_градиент_4"/><linearGradient id="Безымянный_градиент_29" x1="88.24" y1="871.33" x2="501.14" y2="871.33" gradientTransform="matrix(1, 0, 0, -1, 440.72, 2073.07)" xlink:href="#Безымянный_градиент_26"/><linearGradient id="Безымянный_градиент_30" x1="104.19" y1="886.61" x2="618.52" y2="886.61" gradientTransform="matrix(1, 0, 0, -1, 440.72, 2073.07)" xlink:href="#Безымянный_градиент_26"/><linearGradient id="Безымянный_градиент_31" x1="28.84" y1="856.18" x2="545.32" y2="856.18" gradientTransform="matrix(1, 0, 0, -1, 440.72, 2073.07)" xlink:href="#Безымянный_градиент_4"/></defs><rect width="2918.64" height="2432.2" fill="none"/><g opacity="0.17"><ellipse cx="1921.79" cy="1732.73" rx="353.8" ry="155.41" fill="#4c0000" fill-opacity="0"/><ellipse cx="1921.79" cy="1732.73" rx="345.24" ry="151.65" fill="#4a0101" opacity="0.04" style="isolation:isolate"/><ellipse cx="1921.79" cy="1732.73" rx="336.67" ry="147.89" fill="#480202" opacity="0.08" style="isolation:isolate"/><ellipse cx="1921.79" cy="1732.73" rx="328.11" ry="144.13" fill="#460303" opacity="0.12" style="isolation:isolate"/><ellipse cx="1921.79" cy="1732.73" rx="319.55" ry="140.36" fill="#440404" opacity="0.15" style="isolation:isolate"/><ellipse cx="1921.79" cy="1732.73" rx="310.99" ry="136.6" fill="#420505" opacity="0.19" style="isolation:isolate"/><ellipse cx="1921.79" cy="1732.73" rx="302.42" ry="132.84" fill="#400606" opacity="0.23" style="isolation:isolate"/><ellipse cx="1921.79" cy="1732.73" rx="293.86" ry="129.08" fill="#3e0606" opacity="0.27" style="isolation:isolate"/><ellipse cx="1921.79" cy="1732.73" rx="285.3" ry="125.32" fill="#3c0707" opacity="0.31" style="isolation:isolate"/><ellipse cx="1921.79" cy="1732.73" rx="276.74" ry="121.56" fill="#3a0808" opacity="0.35" style="isolation:isolate"/><ellipse cx="1921.79" cy="1732.73" rx="268.17" ry="117.8" fill="#380909" opacity="0.38" style="isolation:isolate"/><ellipse cx="1921.79" cy="1732.73" rx="259.61" ry="114.04" fill="#360a0a" opacity="0.42" style="isolation:isolate"/><ellipse cx="1921.79" cy="1732.73" rx="251.05" ry="110.27" fill="#340b0b" opacity="0.46" style="isolation:isolate"/><ellipse cx="1921.79" cy="1732.73" rx="242.49" ry="106.51" fill="#330c0c" opacity="0.5" style="isolation:isolate"/><ellipse cx="1921.79" cy="1732.73" rx="233.92" ry="102.75" fill="#310d0d" opacity="0.54" style="isolation:isolate"/><ellipse cx="1921.79" cy="1732.73" rx="225.36" ry="98.99" fill="#2f0e0e" opacity="0.58" style="isolation:isolate"/><ellipse cx="1921.79" cy="1732.73" rx="216.8" ry="95.23" fill="#2d0f0f" opacity="0.62" style="isolation:isolate"/><ellipse cx="1921.79" cy="1732.73" rx="208.23" ry="91.47" fill="#2b1010" opacity="0.65" style="isolation:isolate"/><ellipse cx="1921.79" cy="1732.73" rx="199.67" ry="87.71" fill="#291111" opacity="0.69" style="isolation:isolate"/><ellipse cx="1921.79" cy="1732.73" rx="191.11" ry="83.95" fill="#271212" opacity="0.73" style="isolation:isolate"/><ellipse cx="1921.79" cy="1732.73" rx="182.55" ry="80.19" fill="#251212" opacity="0.77" style="isolation:isolate"/><ellipse cx="1921.79" cy="1732.73" rx="173.98" ry="76.42" fill="#231313" opacity="0.81" style="isolation:isolate"/><ellipse cx="1921.79" cy="1732.73" rx="165.42" ry="72.66" fill="#211414" opacity="0.85" style="isolation:isolate"/><ellipse cx="1921.79" cy="1732.73" rx="156.86" ry="68.9" fill="#1f1515" opacity="0.88" style="isolation:isolate"/><ellipse cx="1921.79" cy="1732.73" rx="148.3" ry="65.14" fill="#1d1616" opacity="0.92" style="isolation:isolate"/><ellipse cx="1921.79" cy="1732.73" rx="139.73" ry="61.38" fill="#1b1717" opacity="0.96" style="isolation:isolate"/><ellipse cx="1921.79" cy="1732.73" rx="131.17" ry="57.62" fill="#191818"/></g><g opacity="0.17"><ellipse cx="1853.51" cy="1674.84" rx="353.8" ry="155.41" fill="#4c0000" fill-opacity="0"/><ellipse cx="1853.51" cy="1674.84" rx="345.24" ry="151.65" fill="#4a0101" opacity="0.04" style="isolation:isolate"/><ellipse cx="1853.51" cy="1674.84" rx="336.67" ry="147.89" fill="#480202" opacity="0.08" style="isolation:isolate"/><ellipse cx="1853.51" cy="1674.84" rx="328.11" ry="144.13" fill="#460303" opacity="0.12" style="isolation:isolate"/><ellipse cx="1853.51" cy="1674.84" rx="319.55" ry="140.36" fill="#440404" opacity="0.15" style="isolation:isolate"/><ellipse cx="1853.51" cy="1674.84" rx="310.99" ry="136.6" fill="#420505" opacity="0.19" style="isolation:isolate"/><ellipse cx="1853.51" cy="1674.84" rx="302.42" ry="132.84" fill="#400606" opacity="0.23" style="isolation:isolate"/><ellipse cx="1853.51" cy="1674.84" rx="293.86" ry="129.08" fill="#3e0606" opacity="0.27" style="isolation:isolate"/><ellipse cx="1853.51" cy="1674.84" rx="285.3" ry="125.32" fill="#3c0707" opacity="0.31" style="isolation:isolate"/><ellipse cx="1853.51" cy="1674.84" rx="276.74" ry="121.56" fill="#3a0808" opacity="0.35" style="isolation:isolate"/><ellipse cx="1853.51" cy="1674.84" rx="268.17" ry="117.8" fill="#380909" opacity="0.38" style="isolation:isolate"/><ellipse cx="1853.51" cy="1674.84" rx="259.61" ry="114.04" fill="#360a0a" opacity="0.42" style="isolation:isolate"/><ellipse cx="1853.51" cy="1674.84" rx="251.05" ry="110.27" fill="#340b0b" opacity="0.46" style="isolation:isolate"/><ellipse cx="1853.51" cy="1674.84" rx="242.49" ry="106.51" fill="#330c0c" opacity="0.5" style="isolation:isolate"/><ellipse cx="1853.51" cy="1674.84" rx="233.92" ry="102.75" fill="#310d0d" opacity="0.54" style="isolation:isolate"/><ellipse cx="1853.51" cy="1674.84" rx="225.36" ry="98.99" fill="#2f0e0e" opacity="0.58" style="isolation:isolate"/><ellipse cx="1853.51" cy="1674.84" rx="216.8" ry="95.23" fill="#2d0f0f" opacity="0.62" style="isolation:isolate"/><ellipse cx="1853.51" cy="1674.84" rx="208.23" ry="91.47" fill="#2b1010" opacity="0.65" style="isolation:isolate"/><ellipse cx="1853.51" cy="1674.84" rx="199.67" ry="87.71" fill="#291111" opacity="0.69" style="isolation:isolate"/><ellipse cx="1853.51" cy="1674.84" rx="191.11" ry="83.95" fill="#271212" opacity="0.73" style="isolation:isolate"/><ellipse cx="1853.51" cy="1674.84" rx="182.55" ry="80.19" fill="#251212" opacity="0.77" style="isolation:isolate"/><ellipse cx="1853.51" cy="1674.84" rx="173.98" ry="76.42" fill="#231313" opacity="0.81" style="isolation:isolate"/><ellipse cx="1853.51" cy="1674.84" rx="165.42" ry="72.66" fill="#211414" opacity="0.85" style="isolation:isolate"/><ellipse cx="1853.51" cy="1674.84" rx="156.86" ry="68.9" fill="#1f1515" opacity="0.88" style="isolation:isolate"/><ellipse cx="1853.51" cy="1674.84" rx="148.3" ry="65.14" fill="#1d1616" opacity="0.92" style="isolation:isolate"/><ellipse cx="1853.51" cy="1674.84" rx="139.73" ry="61.38" fill="#1b1717" opacity="0.96" style="isolation:isolate"/><ellipse cx="1853.51" cy="1674.84" rx="131.17" ry="57.62" fill="#191818"/></g><g opacity="0.17"><ellipse cx="1448.92" cy="1917.84" rx="353.8" ry="155.41" fill="#4c0000" fill-opacity="0"/><ellipse cx="1448.92" cy="1917.84" rx="345.24" ry="151.65" fill="#4a0101" opacity="0.04" style="isolation:isolate"/><ellipse cx="1448.92" cy="1917.84" rx="336.67" ry="147.89" fill="#480202" opacity="0.08" style="isolation:isolate"/><ellipse cx="1448.92" cy="1917.84" rx="328.11" ry="144.13" fill="#460303" opacity="0.12" style="isolation:isolate"/><ellipse cx="1448.92" cy="1917.84" rx="319.55" ry="140.36" fill="#440404" opacity="0.15" style="isolation:isolate"/><ellipse cx="1448.92" cy="1917.84" rx="310.99" ry="136.6" fill="#420505" opacity="0.19" style="isolation:isolate"/><ellipse cx="1448.92" cy="1917.84" rx="302.42" ry="132.84" fill="#400606" opacity="0.23" style="isolation:isolate"/><ellipse cx="1448.92" cy="1917.84" rx="293.86" ry="129.08" fill="#3e0606" opacity="0.27" style="isolation:isolate"/><ellipse cx="1448.92" cy="1917.84" rx="285.3" ry="125.32" fill="#3c0707" opacity="0.31" style="isolation:isolate"/><ellipse cx="1448.92" cy="1917.84" rx="276.74" ry="121.56" fill="#3a0808" opacity="0.35" style="isolation:isolate"/><ellipse cx="1448.92" cy="1917.84" rx="268.17" ry="117.8" fill="#380909" opacity="0.38" style="isolation:isolate"/><ellipse cx="1448.92" cy="1917.84" rx="259.61" ry="114.04" fill="#360a0a" opacity="0.42" style="isolation:isolate"/><ellipse cx="1448.92" cy="1917.84" rx="251.05" ry="110.27" fill="#340b0b" opacity="0.46" style="isolation:isolate"/><ellipse cx="1448.92" cy="1917.84" rx="242.49" ry="106.51" fill="#330c0c" opacity="0.5" style="isolation:isolate"/><ellipse cx="1448.92" cy="1917.84" rx="233.92" ry="102.75" fill="#310d0d" opacity="0.54" style="isolation:isolate"/><ellipse cx="1448.92" cy="1917.84" rx="225.36" ry="98.99" fill="#2f0e0e" opacity="0.58" style="isolation:isolate"/><ellipse cx="1448.92" cy="1917.84" rx="216.8" ry="95.23" fill="#2d0f0f" opacity="0.62" style="isolation:isolate"/><ellipse cx="1448.92" cy="1917.84" rx="208.23" ry="91.47" fill="#2b1010" opacity="0.65" style="isolation:isolate"/><ellipse cx="1448.92" cy="1917.84" rx="199.67" ry="87.71" fill="#291111" opacity="0.69" style="isolation:isolate"/><ellipse cx="1448.92" cy="1917.84" rx="191.11" ry="83.95" fill="#271212" opacity="0.73" style="isolation:isolate"/><ellipse cx="1448.92" cy="1917.84" rx="182.55" ry="80.19" fill="#251212" opacity="0.77" style="isolation:isolate"/><ellipse cx="1448.92" cy="1917.84" rx="173.98" ry="76.42" fill="#231313" opacity="0.81" style="isolation:isolate"/><ellipse cx="1448.92" cy="1917.84" rx="165.42" ry="72.66" fill="#211414" opacity="0.85" style="isolation:isolate"/><ellipse cx="1448.92" cy="1917.84" rx="156.86" ry="68.9" fill="#1f1515" opacity="0.88" style="isolation:isolate"/><ellipse cx="1448.92" cy="1917.84" rx="148.3" ry="65.14" fill="#1d1616" opacity="0.92" style="isolation:isolate"/><ellipse cx="1448.92" cy="1917.84" rx="139.73" ry="61.38" fill="#1b1717" opacity="0.96" style="isolation:isolate"/><ellipse cx="1448.92" cy="1917.84" rx="131.17" ry="57.62" fill="#191818"/></g><g opacity="0.17"><ellipse cx="802.17" cy="1589.72" rx="353.8" ry="155.41" fill="#4c0000" fill-opacity="0"/><ellipse cx="802.17" cy="1589.72" rx="345.24" ry="151.65" fill="#4a0101" opacity="0.04" style="isolation:isolate"/><ellipse cx="802.17" cy="1589.72" rx="336.67" ry="147.89" fill="#480202" opacity="0.08" style="isolation:isolate"/><ellipse cx="802.17" cy="1589.72" rx="328.11" ry="144.13" fill="#460303" opacity="0.12" style="isolation:isolate"/><ellipse cx="802.17" cy="1589.72" rx="319.55" ry="140.36" fill="#440404" opacity="0.15" style="isolation:isolate"/><ellipse cx="802.17" cy="1589.72" rx="310.99" ry="136.6" fill="#420505" opacity="0.19" style="isolation:isolate"/><ellipse cx="802.17" cy="1589.72" rx="302.42" ry="132.84" fill="#400606" opacity="0.23" style="isolation:isolate"/><ellipse cx="802.17" cy="1589.72" rx="293.86" ry="129.08" fill="#3e0606" opacity="0.27" style="isolation:isolate"/><ellipse cx="802.17" cy="1589.72" rx="285.3" ry="125.32" fill="#3c0707" opacity="0.31" style="isolation:isolate"/><ellipse cx="802.17" cy="1589.72" rx="276.74" ry="121.56" fill="#3a0808" opacity="0.35" style="isolation:isolate"/><ellipse cx="802.17" cy="1589.72" rx="268.17" ry="117.8" fill="#380909" opacity="0.38" style="isolation:isolate"/><ellipse cx="802.17" cy="1589.72" rx="259.61" ry="114.04" fill="#360a0a" opacity="0.42" style="isolation:isolate"/><ellipse cx="802.17" cy="1589.72" rx="251.05" ry="110.28" fill="#340b0b" opacity="0.46" style="isolation:isolate"/><ellipse cx="802.17" cy="1589.72" rx="242.49" ry="106.51" fill="#330c0c" opacity="0.5" style="isolation:isolate"/><ellipse cx="802.17" cy="1589.72" rx="233.92" ry="102.75" fill="#310d0d" opacity="0.54" style="isolation:isolate"/><ellipse cx="802.17" cy="1589.72" rx="225.36" ry="98.99" fill="#2f0e0e" opacity="0.58" style="isolation:isolate"/><ellipse cx="802.17" cy="1589.72" rx="216.8" ry="95.23" fill="#2d0f0f" opacity="0.62" style="isolation:isolate"/><ellipse cx="802.17" cy="1589.72" rx="208.23" ry="91.47" fill="#2b1010" opacity="0.65" style="isolation:isolate"/><ellipse cx="802.17" cy="1589.72" rx="199.67" ry="87.71" fill="#291111" opacity="0.69" style="isolation:isolate"/><ellipse cx="802.17" cy="1589.72" rx="191.11" ry="83.95" fill="#271212" opacity="0.73" style="isolation:isolate"/><ellipse cx="802.17" cy="1589.72" rx="182.55" ry="80.19" fill="#251212" opacity="0.77" style="isolation:isolate"/><ellipse cx="802.17" cy="1589.72" rx="173.98" ry="76.42" fill="#231313" opacity="0.81" style="isolation:isolate"/><ellipse cx="802.17" cy="1589.72" rx="165.42" ry="72.66" fill="#211414" opacity="0.85" style="isolation:isolate"/><ellipse cx="802.17" cy="1589.72" rx="156.86" ry="68.9" fill="#1f1515" opacity="0.88" style="isolation:isolate"/><ellipse cx="802.17" cy="1589.72" rx="148.3" ry="65.14" fill="#1d1616" opacity="0.92" style="isolation:isolate"/><ellipse cx="802.17" cy="1589.72" rx="139.73" ry="61.38" fill="#1b1717" opacity="0.96" style="isolation:isolate"/><ellipse cx="802.17" cy="1589.72" rx="131.17" ry="57.62" fill="#191818"/></g><path d="M1991.74,1409a28.17,28.17,0,0,1-15.33,25.39,6.08,6.08,0,0,1-1,.47l-13.25-41.38-110.71-65.93c-.53-146.38-.89-320.22.36-367l-45.36,21.11c-1.07,41.74-.9,184.49-.42,318.74L1313.43,1007a69,69,0,0,1-33.71-59.28V331.82l-31.33-17.6a.2.2,0,0,1,.18-.06l7.19-3.27c.06-.06.06-.06.12-.06l35.55-16.17a29.84,29.84,0,0,1,32.17-2.91L1560.34,414.1l56.13,192.34,409.64,226.93a20.16,20.16,0,0,1,10.46,18.32l-45.3,21.16C1989.54,941,1991.09,1279.52,1991.74,1409Z" transform="translate(440.81 358.94)" fill="url(#Безымянный_градиент)"/><path d="M1991.74,1409a28.17,28.17,0,0,1-15.33,25.39,6.08,6.08,0,0,1-1,.47,28,28,0,0,1-26.75-1.25l-97-57.79c-.06-15.57-.12-31.75-.24-48.27-.53-146.38-.89-320.22.36-367l-45.36,21.11c-1.07,41.74-.9,184.49-.42,318.74.06,16.29.12,32.46.12,48.27l-538-320.52a68.88,68.88,0,0,1-33.71-59.27V339.61a29.76,29.76,0,0,1,14-25.39.2.2,0,0,1,.18-.06,26.85,26.85,0,0,1,7.19-3.27c.06-.06.06-.06.12-.06a29.56,29.56,0,0,1,22.41,2.08l236.75,122.36,56.12,192.33,409.59,226.94a20.34,20.34,0,0,1,10.52,18.31C1989.54,941,1991.09,1279.52,1991.74,1409Z" transform="translate(440.81 358.94)" fill="url(#Безымянный_градиент_2)"/><polygon points="2432.42 1741.13 2292.15 1660.74 2292.15 1823.39 2432.42 1741.13" fill="url(#Безымянный_градиент_3)"/><polygon points="1663.55 358.94 2234.92 689.91 2379.25 946.21 2379.25 1726.16 1663.55 1311.03 1663.55 358.94" fill="url(#Безымянный_градиент_4)"/><polygon points="1620.07 386.41 2191.44 717.37 2335.77 973.67 2335.77 1753.63 1620.07 1338.49 1620.07 386.41" fill="url(#Безымянный_градиент_5)"/><polygon points="1647.15 1322.9 1647.15 433.38 2171.48 737.1 2308.7 980.77 2308.7 1706.62 1647.15 1322.9" fill="url(#Безымянный_градиент_6)"/><polygon points="2234.92 689.91 2191.44 717.37 1620.07 386.41 1663.55 358.94 2234.92 689.91" fill="url(#Безымянный_градиент_7)"/><polygon points="2379.25 946.21 2335.77 973.67 2335.77 1753.63 2379.25 1726.16 2379.25 946.21" fill="#c4c2c2"/><polygon points="2171.48 737.1 2171.48 913.91 2308.7 980.77 2171.48 737.1" fill="#c4c2c2"/><polygon points="1978.06 899.46 2257.53 1045.49 2257.64 1225.29 1977.92 1074.51 1978.06 899.46" fill="#fff"/><polygon points="1994.77 1068.58 1994.89 923.23 2240.63 1051.64 2240.73 1201.15 1994.77 1068.58" fill="url(#Безымянный_градиент_8)"/><polygon points="1994.77 1068.58 2061.94 1026.54 2115.35 1133.58 1994.77 1068.58" fill="url(#Безымянный_градиент_9)"/><polygon points="2240.73 1201.15 2154.96 1025.92 2068.83 1108.5 2240.73 1201.15" fill="url(#Безымянный_градиент_10)"/><path d="M1626.25,629.37c4.69,9.4,1.8,16.6-6.47,16.09s-18.78-8.57-23.47-18-1.8-16.61,6.47-16.09S1621.56,620,1626.25,629.37Z" transform="translate(440.81 358.94)" fill="url(#Безымянный_градиент_11)"/><line x1="1701.8" y1="796.09" x2="1950.63" y2="931.95" fill="none" stroke="#ccc" stroke-linecap="round" stroke-linejoin="round" stroke-width="14.56"/><line x1="1701.8" y1="711.12" x2="1950.63" y2="846.98" fill="none" stroke="#ccc" stroke-linecap="round" stroke-linejoin="round" stroke-width="14.56"/><line x1="1853.51" y1="609.67" x2="2102.34" y2="745.54" fill="none" stroke="#ccc" stroke-linecap="round" stroke-linejoin="round" stroke-width="14.56"/><line x1="1701.8" y1="847.94" x2="1950.63" y2="983.8" fill="none" stroke="#ccc" stroke-linecap="round" stroke-linejoin="round" stroke-width="14.56"/><line x1="1701.8" y1="899.8" x2="1950.63" y2="1035.66" fill="none" stroke="#ccc" stroke-linecap="round" stroke-linejoin="round" stroke-width="14.56"/><line x1="1701.8" y1="951.65" x2="1950.63" y2="1087.51" fill="none" stroke="#ccc" stroke-linecap="round" stroke-linejoin="round" stroke-width="14.56"/><line x1="1701.8" y1="1003.51" x2="2240.09" y2="1290.62" fill="none" stroke="#ccc" stroke-linecap="round" stroke-linejoin="round" stroke-width="14.56"/><line x1="1701.8" y1="1054.68" x2="2240.09" y2="1341.79" fill="none" stroke="#ccc" stroke-linecap="round" stroke-linejoin="round" stroke-width="14.56"/><line x1="1701.8" y1="1105.86" x2="2240.09" y2="1392.96" fill="none" stroke="#ccc" stroke-linecap="round" stroke-linejoin="round" stroke-width="14.56"/><line x1="1701.8" y1="1157.03" x2="2240.09" y2="1438.3" fill="none" stroke="#ccc" stroke-linecap="round" stroke-linejoin="round" stroke-width="14.56"/><line x1="1701.8" y1="1208.2" x2="2240.09" y2="1495.31" fill="none" stroke="#ccc" stroke-linecap="round" stroke-linejoin="round" stroke-width="14.56"/><line x1="1701.8" y1="1259.38" x2="2162.86" y2="1506.13" fill="none" stroke="#ccc" stroke-linecap="round" stroke-linejoin="round" stroke-width="14.56"/><polygon points="1647.15 541.44 2171.48 837.47 2171.48 895.59 1647.15 599.55 1647.15 541.44" fill="url(#Безымянный_градиент_12)"/><path d="M2036.57,851.69l-45.3,21.16c-1.62,63.91-.36,365.2.34,509.34l-139.53,82.27c-.14-25.69-.29-55.86-.41-88.69-.06-15.57-.12-31.75-.24-48.27-.53-146.38-.89-320.22.36-367l-45.36,21.11c-1.07,41.74-.9,184.49-.42,318.74.06,16.29.12,32.46.12,48.27.3,67.13.59,128.42.77,169.15a28.13,28.13,0,0,1-15.34,25.38l42.81-20c.59-.24,1.13-.54,1.72-.83a29.84,29.84,0,0,0,6.82-4.63l171.87-101.33,4.43-2.07c.6-.24,1.13-.54,1.73-.83a28.23,28.23,0,0,0,16.17-25.45v-.18C2036.39,1258.35,2034.85,919.88,2036.57,851.69Z" transform="translate(440.81 358.94)" fill="#c17529"/><path d="M1806.13,1348.66c.3,67.13.59,128.42.77,169.15a28.13,28.13,0,0,1-15.34,25.38,4.84,4.84,0,0,1-1,.48l-13.26-41.38-648.7-386.45a69,69,0,0,1-33.65-59.27V440.62l-31.39-17.54,7.72-3.51,35.32-16.05a29.83,29.83,0,0,1,32.16-2.91l95.67,49.46,45.3,23.37L1375.5,523l56.13,192.34,409.63,226.93a20.35,20.35,0,0,1,10.53,18.31l-45.36,21.11c-1.07,41.74-.9,184.49-.42,318.74C1806.07,1316.68,1806.13,1332.85,1806.13,1348.66Z" transform="translate(440.81 358.94)" fill="url(#Безымянный_градиент_13)"/><path d="M1806.91,1517.81a28.13,28.13,0,0,1-15.34,25.38,4.84,4.84,0,0,1-1,.48,28,28,0,0,1-26.69-1.25L1083.28,1137a68.93,68.93,0,0,1-33.71-59.28V448.47a29.71,29.71,0,0,1,14-25.39,28.5,28.5,0,0,1,7.72-3.51,29.78,29.78,0,0,1,22.18,2.14l141,72.89,45.3,23.43,50.48,26.1,56.12,192.33L1796,963.4a20.39,20.39,0,0,1,10.47,18.25c-1.07,41.74-.9,184.49-.42,318.74.06,16.29.12,32.46.12,48.27C1806.43,1415.79,1806.72,1477.08,1806.91,1517.81Z" transform="translate(440.81 358.94)" fill="url(#Безымянный_градиент_14)"/><polygon points="1816.31 881.9 1771.01 903.07 1827.13 1095.4 1872.44 1074.23 1816.31 881.9" fill="#c17529"/><path d="M1804.13,1519c-.18-40.73-.47-102-.77-169.15,0-15.82-.06-32-.12-48.28-.48-134.24-.65-277,.42-318.73a20.39,20.39,0,0,0-10.47-18.25l-409.64-227-56.12-192.33-50.52-26.1-45.3-23.43-141-72.89a29.68,29.68,0,0,0-21.78-2.22c.81-.31,1.53-.84,2.37-1.08a29.78,29.78,0,0,1,22.18,2.14l141,72.89,45.3,23.43,50.48,26.1,56.12,192.33L1795.92,963.4a20.4,20.4,0,0,1,10.47,18.25c-1.07,41.74-.9,184.48-.42,318.73.06,16.3.12,32.47.12,48.28.3,67.13.59,128.42.77,169.15a28.16,28.16,0,0,1-15.34,25.39,5.36,5.36,0,0,1-1,.47c-.49.24-1,.32-1.54.53A28.11,28.11,0,0,0,1804.13,1519Z" transform="translate(440.81 358.94)" fill="url(#Безымянный_градиент_15)"/><polygon points="1304.12 1756.05 1304.12 1021.73 1705.67 1253 1818.9 1467.79 1818.9 2052.54 1806.43 2063.5 1304.12 1756.05" fill="url(#Безымянный_градиент_16)"/><polygon points="1291.65 1767.02 1291.65 1032.69 1693.2 1263.96 1806.43 1478.75 1806.43 2063.5 1291.65 1767.02" fill="url(#Безымянный_градиент_17)"/><polygon points="1309.59 1756.64 1788.49 2032.46 1788.49 1483.19 1679.75 1276.92 1309.59 1063.73 1309.59 1756.64" fill="url(#Безымянный_градиент_18)"/><polygon points="1679.75 1276.92 1679.75 1435.28 1788.49 1483.19 1679.75 1276.92" fill="url(#Безымянный_градиент_19)"/><polygon points="1304.12 1021.73 1291.65 1032.69 1693.2 1263.96 1705.67 1253 1304.12 1021.73" fill="url(#Безымянный_градиент_20)"/><line x1="1342.77" y1="1233.97" x2="1586.68" y2="1374.45" fill="none" stroke="#ccc" stroke-linecap="round" stroke-linejoin="round" stroke-width="7.85"/><line x1="1342.77" y1="1275.82" x2="1586.68" y2="1416.3" fill="none" stroke="#ccc" stroke-linecap="round" stroke-linejoin="round" stroke-width="7.85"/><line x1="1342.77" y1="1317.66" x2="1745.76" y2="1549.31" fill="none" stroke="#ccc" stroke-linecap="round" stroke-linejoin="round" stroke-width="7.85"/><line x1="1342.77" y1="1359.5" x2="1745.76" y2="1591.15" fill="none" stroke="#ccc" stroke-linecap="round" stroke-linejoin="round" stroke-width="7.85"/><line x1="1342.77" y1="1401.35" x2="1745.76" y2="1632.99" fill="none" stroke="#ccc" stroke-linecap="round" stroke-linejoin="round" stroke-width="7.85"/><line x1="1342.77" y1="1728.18" x2="1555.07" y2="1850.21" fill="none" stroke="#ccc" stroke-linecap="round" stroke-linejoin="round" stroke-width="7.85"/><line x1="1342.77" y1="1443.19" x2="1745.76" y2="1674.84" fill="none" stroke="#ccc" stroke-linecap="round" stroke-linejoin="round" stroke-width="7.85"/><line x1="1342.77" y1="1559.01" x2="1745.76" y2="1790.66" fill="none" stroke="#ccc" stroke-linecap="round" stroke-linejoin="round" stroke-width="5.98"/><polygon points="1342.77 1678.06 1745.76 1909.7 1745.76 1745.43 1342.77 1513.79 1342.77 1678.06" fill="none" stroke="#ccc" stroke-linecap="round" stroke-linejoin="round" stroke-width="5.98"/><polygon points="1342.77 1190.49 1576.29 1324.73 1576.29 1268.56 1342.77 1134.32 1342.77 1190.49" fill="none" stroke="#ccc" stroke-linecap="round" stroke-linejoin="round" stroke-width="5.98"/><line x1="1443.8" y1="1571.86" x2="1443.8" y2="1736.13" fill="none" stroke="#ccc" stroke-linecap="round" stroke-linejoin="round" stroke-width="5.98"/><line x1="1596.06" y1="1660.82" x2="1596.06" y2="1825.09" fill="none" stroke="#ccc" stroke-linecap="round" stroke-linejoin="round" stroke-width="5.98"/><polygon points="652.4 1400.18 652.4 665.86 1053.95 897.13 1167.18 1111.91 1167.18 1696.67 1154.7 1707.63 652.4 1400.18" fill="url(#Безымянный_градиент_21)"/><polygon points="639.92 1411.14 639.92 676.82 1041.47 908.09 1154.7 1122.88 1154.7 1707.63 639.92 1411.14" fill="url(#Безымянный_градиент_22)"/><polygon points="657.86 1400.77 1136.76 1676.59 1136.76 1127.32 1028.02 921.05 657.86 707.86 657.86 1400.77" fill="url(#Безымянный_градиент_23)"/><polygon points="1028.02 921.05 1028.02 1079.4 1136.76 1127.32 1028.02 921.05" fill="url(#Безымянный_градиент_24)"/><polygon points="652.4 665.86 639.92 676.82 1041.47 908.09 1053.95 897.13 652.4 665.86" fill="url(#Безымянный_градиент_25)"/><line x1="691.05" y1="878.1" x2="934.96" y2="1018.58" fill="none" stroke="#ccc" stroke-linecap="round" stroke-linejoin="round" stroke-width="7.85"/><line x1="691.05" y1="919.95" x2="934.96" y2="1060.42" fill="none" stroke="#ccc" stroke-linecap="round" stroke-linejoin="round" stroke-width="7.85"/><line x1="691.05" y1="961.79" x2="1094.03" y2="1193.43" fill="none" stroke="#ccc" stroke-linecap="round" stroke-linejoin="round" stroke-width="7.85"/><line x1="691.05" y1="1003.63" x2="1094.03" y2="1235.28" fill="none" stroke="#ccc" stroke-linecap="round" stroke-linejoin="round" stroke-width="7.85"/><line x1="691.05" y1="1045.47" x2="1094.03" y2="1277.12" fill="none" stroke="#ccc" stroke-linecap="round" stroke-linejoin="round" stroke-width="7.85"/><line x1="691.05" y1="1372.31" x2="903.34" y2="1494.34" fill="none" stroke="#ccc" stroke-linecap="round" stroke-linejoin="round" stroke-width="7.85"/><line x1="691.05" y1="1087.32" x2="1094.03" y2="1318.96" fill="none" stroke="#ccc" stroke-linecap="round" stroke-linejoin="round" stroke-width="7.85"/><line x1="691.05" y1="1203.14" x2="1094.03" y2="1434.79" fill="none" stroke="#ccc" stroke-linecap="round" stroke-linejoin="round" stroke-width="5.98"/><polygon points="691.04 1322.19 1094.03 1553.83 1094.03 1389.56 691.04 1157.91 691.04 1322.19" fill="none" stroke="#ccc" stroke-linecap="round" stroke-linejoin="round" stroke-width="5.98"/><polygon points="691.04 834.62 924.57 968.85 924.57 912.68 691.04 778.45 691.04 834.62" fill="none" stroke="#ccc" stroke-linecap="round" stroke-linejoin="round" stroke-width="5.98"/><line x1="792.07" y1="1215.98" x2="792.07" y2="1380.26" fill="none" stroke="#ccc" stroke-linecap="round" stroke-linejoin="round" stroke-width="5.98"/><line x1="944.33" y1="1304.95" x2="944.33" y2="1469.22" fill="none" stroke="#ccc" stroke-linecap="round" stroke-linejoin="round" stroke-width="5.98"/><path d="M.24,1452.61c-.08.86-.14,1.72-.19,2.59a9.32,9.32,0,0,1,0,1.18v4.07c0,.89,0,1.81.06,2.72v.16c0,.86.08,1.72.13,2.58s.14,1.9.23,2.85a8.49,8.49,0,0,0,.11,1l.06.6c.05.42.09.84.14,1.26.12,1,.25,1.94.4,2.92.1.7.23,1.42.35,2.13l.06.39.06.38c.17,1,.36,1.91.55,2.86s.4,1.89.62,2.83l.12.51.11.44c.14.59.28,1.18.43,1.77.23.91.47,1.81.72,2.71.18.65.38,1.29.57,1.94a1.15,1.15,0,0,0,.1.35c0,.12.08.26.11.39.28.91.57,1.82.86,2.72s.67,2,1,3c0,.15.11.29.16.44l.21.57c.29.79.58,1.58.88,2.37.38,1,.8,2,1.2,2.92.21.49.4,1,.61,1.49.09.19.16.39.24.58.37.85.8,1.67,1.18,2.5.57,1.24,1.13,2.47,1.73,3.69.1.19.18.38.27.58q1.34,2.63,2.78,5.18h0c.64,1.15,1.3,2.28,2,3.4.55.9,1.12,1.8,1.68,2.69v.05h0c.57.89,1.16,1.78,1.76,2.65s1.18,1.71,1.79,2.55l.3.4c.1.15.21.28.31.43.43.57.85,1.15,1.28,1.71.65.84,1.31,1.68,2,2.49.2.25.41.49.62.74s.31.38.47.56c.33.39.65.78,1,1.16.69.8,1.4,1.58,2.11,2.35.31.34.64.66.95,1l.48.5.71.73c.69.71,1.4,1.4,2.11,2.07a17.5,17.5,0,0,0,1.57,1.42l.28.26.27.25c.68.6,1.38,1.19,2.08,1.76s1.38,1.12,2.08,1.66l.48.37,1.58,1.15,2,1.39c.44.29.88.56,1.32.83l.32.2.38.25c.68.4,1.35.79,2,1.15s1.37.73,2,1.07l.36.17.3.14,1.39.65c.71.31,1.42.6,2.12.87l1,.36.44.16.66.23c.76.25,1.53.47,2.28.66.47.13.93.22,1.39.32l.48.11.46.1q1.26.24,2.49.39a4.87,4.87,0,0,1,1.08.08l.83.06c.29,0,.58.06.86.06a27.08,27.08,0,0,0,3.12-.07h.06a5.81,5.81,0,0,0,.69-.11,26.77,26.77,0,0,0,3.09-.46,1.13,1.13,0,0,0,.24-.08,25.15,25.15,0,0,0,4.31-1.38l361-155a26.09,26.09,0,0,1-4.31,1.39,27,27,0,0,1-3.34.54c-.23,0-.45.08-.68.1a33.36,33.36,0,0,1-4,0l-.84-.07a33.78,33.78,0,0,1-4-.57l-.48-.11a38.48,38.48,0,0,1-4.32-1.21l-.45-.16a43.49,43.49,0,0,1-4.52-1.88l-.31-.14c-1.58-.77-3.19-1.65-4.8-2.64l-.32-.2c-1.64-1-3.28-2.14-4.93-3.37s-3.31-2.61-4.92-4a3.45,3.45,0,0,0-.28-.26q-2.25-2-4.39-4.23l-.47-.49c-1.38-1.45-2.71-3-4-4.51l-.46-.55c-1.34-1.6-2.63-3.25-3.89-5l-.31-.41c-1.33-1.83-2.63-3.71-3.88-5.64v-.06q-1.92-3-3.67-6.08h0c-1.07-1.89-2.07-3.82-3.05-5.77-.6-1.21-1.16-2.45-1.73-3.68-.47-1-1-2-1.41-3.09-.22-.49-.41-1-.62-1.5-.72-1.74-1.43-3.5-2.07-5.27-.07-.19-.15-.38-.22-.58-.77-2.15-1.48-4.31-2.15-6.5a1.61,1.61,0,0,0-.1-.36c-.64-2.14-1.21-4.29-1.72-6.43a1.89,1.89,0,0,0-.1-.41q-.78-3.32-1.36-6.6l-.06-.39c-.36-2.11-.66-4.21-.88-6.31,0-.19,0-.39-.07-.59-.23-2.16-.39-4.3-.46-6.42-.11-3.18,0-.07,0-.1q-.1-3.21,0-6.35v-.52c.09-2.08.25-4.15.5-6.17s.59-3.94,1-5.79l.12-.51c.38-1.69.82-3.32,1.32-4.86l.2-.62c.51-1.49,1.07-2.92,1.68-4.27l.36-.76a39,39,0,0,1,1.94-3.6l.23-.4a35.5,35.5,0,0,1,2.6-3.61l.39-.42a31,31,0,0,1,2.39-2.47l.92-.8c.72-.6,1.47-1.16,2.23-1.68a10.73,10.73,0,0,1,1-.64,24.5,24.5,0,0,1,3.32-1.76h0l-361,155a23.71,23.71,0,0,0-3.34,1.77c-.32.2-.63.42-1,.63-.77.53-1.52,1.09-2.23,1.69-.31.26-.62.52-.93.8a29.19,29.19,0,0,0-2.38,2.47c-.13.14-.27.27-.39.42l-.09.1a33.93,33.93,0,0,0-2.45,3.39.15.15,0,0,1-.07.12c-.07,0-.14.26-.22.38-.46.77-.92,1.54-1.35,2.36-.21.41-.4.84-.59,1.26l-.36.75c-.1.23-.22.44-.32.68a27.28,27.28,0,0,0-1,2.62c-.12.32-.22.65-.33,1s-.14.41-.2.62-.22.62-.31.94q-.37,1.21-.69,2.49c-.12.47-.22,1-.33,1.43a3,3,0,0,1-.11.5c0,.17-.1.39-.14.6-.16.81-.32,1.64-.46,2.48s-.26,1.69-.37,2.56v.15A11.07,11.07,0,0,0,.24,1452.61Z" transform="translate(440.81 358.94)" fill="url(#Безымянный_градиент_26)"/><path d="M403.37,1393.5c-27.32-20.54-46-64.53-41.84-98.28s29.75-44.42,57.06-23.88,46,64.51,41.81,98.22S430.65,1414,403.37,1393.5Z" transform="translate(440.81 358.94)" fill="url(#Безымянный_градиент_27)"/><path d="M392,1313.45c-.05.53-.09,1-.12,1.58v4.87h0a10.66,10.66,0,0,0,.08,1.57c.08.57.08,1.16.13,1.74,0,.2.05.41.07.61a2.23,2.23,0,0,1,0,.37,3,3,0,0,0,.08.77c.08.59.16,1.18.25,1.77s.14.87.21,1.3v.48q.15.87.33,1.74c.12.57.24,1.15.38,1.72a1.83,1.83,0,0,0,.07.32c0,.11.05.18.07.26.08.36.17.73.26,1.09.14.55.29,1.1.44,1.65.11.39.23.79.35,1.18l.06.22a1.19,1.19,0,0,0,.07.23c.17.56.34,1.11.52,1.66s.41,1.21.62,1.81l.1.27c0,.12.09.23.13.35.18.48.35,1,.54,1.44s.48,1.19.73,1.78c.13.3.24.61.37.91l.15.36c.23.51.48,1,.72,1.52.34.76.68,1.51,1.05,2.25.06.12.11.24.17.35.54,1.08,1.11,2.13,1.69,3.17h0c.39.7.8,1.39,1.21,2.07s.68,1.1,1,1.64h0q.53.82,1.08,1.62c.36.52.72,1,1.09,1.55a2.35,2.35,0,0,0,.19.25l.19.26c.26.35.51.7.78,1,.39.52.79,1,1.2,1.52l.38.45.29.35.59.7c.43.49.86,1,1.3,1.44l.57.6.3.31c.14.14.28.3.43.44q.63.65,1.29,1.26c.31.3.63.59.95.87l.18.16.16.15c.42.37.84.73,1.27,1.08s.84.68,1.27,1l.29.22c.32.24.64.48,1,.7s.83.58,1.25.85l.8.51.2.12.23.15,1.23.71c.42.23.84.44,1.25.65l.22.1.18.09.85.39c.43.19.86.37,1.29.53l.63.22.27.1.4.14c.46.15.93.29,1.39.41l.85.19.29.07.28.06c.51.1,1,.18,1.52.24h1.69c.63,0,1.27,0,1.9,0h0l.42-.06a17.22,17.22,0,0,0,1.89-.28l.14,0a15.19,15.19,0,0,0,2.63-.84l143.61-61.27a16.14,16.14,0,0,1-2.63.85,17,17,0,0,1-2,.32l-.42.06a16.83,16.83,0,0,1-2.46,0h-.51a22.41,22.41,0,0,1-2.46-.35l-.29-.07a22,22,0,0,1-2.64-.74l-.27-.09c-.91-.33-1.83-.71-2.76-1.15l-.19-.09a31,31,0,0,1-2.93-1.61l-.19-.12c-1-.62-2-1.3-3-2.06s-2-1.59-3-2.46l-.18-.16c-.91-.81-1.8-1.67-2.67-2.57l-.29-.3c-.84-.89-1.67-1.8-2.47-2.75-.09-.12-.19-.23-.28-.34q-1.23-1.5-2.37-3l-.19-.26c-.82-1.11-1.61-2.26-2.37-3.44h0c-.78-1.2-1.53-2.44-2.24-3.71h0c-.66-1.15-1.27-2.33-1.86-3.52-.37-.74-.71-1.49-1.06-2.25s-.59-1.24-.86-1.88c-.13-.3-.25-.61-.38-.91-.44-1.07-.87-2.14-1.26-3.22,0-.11-.09-.23-.14-.35-.47-1.32-.91-2.64-1.31-4l-.06-.22c-.39-1.3-.74-2.61-1-3.92l-.06-.25c-.32-1.35-.59-2.69-.83-4v-.24c-.22-1.28-.4-2.57-.54-3.84v-.37c-.13-1.31-.23-2.62-.28-3.91v-4.25c.06-1.28.16-2.54.31-3.77s.36-2.41.6-3.53a1.55,1.55,0,0,1,.07-.31q.36-1.56.81-3a1.09,1.09,0,0,1,.13-.37,26.49,26.49,0,0,1,1-2.61c.07-.16.15-.31.22-.46.37-.77.76-1.51,1.18-2.2,0-.08.09-.17.14-.24a20.27,20.27,0,0,1,1.59-2.21l.24-.25a20.68,20.68,0,0,1,1.45-1.51l.57-.49a14.86,14.86,0,0,1,1.36-1l.58-.4a16.68,16.68,0,0,1,2-1.07h0l-143.48,61.56a16.68,16.68,0,0,0-2,1.07l-.58.39c-.47.32-.92.66-1.37,1l-.56.49a20.81,20.81,0,0,0-1.46,1.51c-.07.08-.16.16-.23.25l-.06.06a21.71,21.71,0,0,0-1.49,2.07v.07l-.14.24c-.28.46-.56.94-.82,1.44-.13.24-.24.51-.36.77s-.15.3-.22.46l-.2.41c-.22.51-.43,1-.63,1.6-.07.19-.13.39-.19.59s-.09.25-.13.38l-.19.57q-.23.75-.42,1.53c-.07.28-.13.58-.2.87a1.63,1.63,0,0,1-.07.3l-.08.37c-.1.49-.2,1-.28,1.51s-.16,1-.23,1.57v.09A4.68,4.68,0,0,0,392,1313.45Z" transform="translate(440.81 358.94)" fill="url(#Безымянный_градиент_28)"/><path d="M561.14,1310.39c-16.67-12.53-28.09-39.37-25.53-60s18.15-27.1,34.81-14.57,28.08,39.36,25.51,59.93S577.78,1322.91,561.14,1310.39Z" transform="translate(440.81 358.94)" fill="#898989"/><path d="M912.44,1433.29c-.84.39-1.7.72-2.55,1.08l-.67.28,32.64-19c-2.41,1.4-4.9,2.68-7.43,3.86-.83.39-1.7.72-2.54,1.09-1.73.75-3.47,1.48-5.26,2.14-.65.24-1.33.43-2,.66a100.42,100.42,0,0,1-12.63,3.47c-.29.06-.59.09-.88.15-3,.59-6.18,1-9.35,1.36-1.08.11-2.16.2-3.25.28q-3.09.22-6.26.3c-1.19,0-2.37.06-3.58,0-1.67,0-3.36-.08-5.06-.16-1.37-.07-2.73-.12-4.12-.23s-2.86-.28-4.29-.44-3.13-.34-4.72-.57c-1.33-.19-2.67-.43-4-.66-1.7-.29-3.4-.59-5.12-1-1.15-.24-2.32-.5-3.49-.77-1.82-.43-3.66-.88-5.51-1.38l-3.5-1c-2-.58-4-1.22-6.08-1.89-1-.31-1.9-.6-2.86-.94q-4.5-1.5-9-3.34h-.09c-3-1.2-6-2.51-9-3.89l-2.88-1.36c-2.17-1-4.34-2.07-6.52-3.18-1.07-.55-2.15-1.11-3.24-1.69-2.89-1.52-5.79-3.08-8.71-4.77-3.26-1.88-6.5-3.86-9.72-5.9l-.57-.34c-3.14-2-6.26-4.09-9.36-6.23l-3.11-2.21c-2.09-1.48-4.18-3-6.24-4.52-1.25-.93-2.49-1.89-3.73-2.84-1.86-1.43-3.72-2.87-5.56-4.35-1.34-1.08-2.68-2.18-4-3.28-1.75-1.45-3.5-2.92-5.23-4.42q-2.06-1.75-4.09-3.56c-1.7-1.51-3.39-3-5.08-4.6-1.36-1.25-2.71-2.5-4.06-3.77-1.7-1.61-3.38-3.25-5.06-4.9-1.26-1.23-2.52-2.46-3.76-3.71q-2.61-2.64-5.17-5.34c-1.14-1.19-2.29-2.37-3.43-3.59-2-2.12-3.93-4.28-5.87-6.45-.81-.9-1.63-1.78-2.42-2.69q-4.12-4.68-8.15-9.51l-1.25-1.54c-2.26-2.75-4.51-5.52-6.71-8.33q-4.3-5.47-8.47-11.11c-3.87-5.26-7.61-10.64-11.29-16.08l-2-3q-6.81-10.28-13.12-20.92c-.54-.92-1.1-1.83-1.64-2.74q-4.42-7.59-8.59-15.32l-3-5.67c-1-1.89-2.07-4-3.07-6-1.46-2.91-2.87-5.82-4.27-8.74-.39-.83-.8-1.64-1.19-2.46q-2.58-5.5-5-11c-.45-1-.88-2-1.32-3.08-1.17-2.71-2.31-5.42-3.42-8.15-.52-1.27-1-2.54-1.54-3.82-1-2.67-2.08-5.31-3.07-7.94-.43-1.16-.87-2.31-1.3-3.46q-1.92-5.26-3.71-10.55c-.1-.29-.21-.58-.31-.88q-1.9-5.71-3.64-11.43c-.38-1.26-.73-2.53-1.1-3.79-.77-2.61-1.52-5.22-2.22-7.83-.4-1.46-.78-2.92-1.16-4.38-.63-2.46-1.25-4.91-1.83-7.36-.35-1.46-.68-2.92-1-4.38-.57-2.52-1.1-5-1.61-7.54-.28-1.35-.56-2.7-.82-4q-1-5-1.75-9.87c-.08-.48-.18-1-.26-1.46q-.88-5.64-1.57-11.25c-.13-1.07-.24-2.14-.36-3.21-.3-2.67-.58-5.35-.81-8-.11-1.29-.21-2.58-.31-3.87q-.27-3.77-.45-7.53c-.06-1.22-.13-2.45-.18-3.67-.12-3.57-.21-7.13-.2-10.66,0-3.7.11-7.33.27-10.9,0-1,.13-2,.19-3.07.14-2.44.31-4.86.52-7.24.12-1.39.28-2.75.43-4.11q.32-3,.72-6c.2-1.46.42-2.9.65-4.33q.43-2.73.93-5.4c.3-1.6.62-3.19,1-4.76s.7-3.18,1.08-4.75c.45-1.84.93-3.65,1.42-5.44.39-1.4.78-2.8,1.2-4.17.66-2.14,1.37-4.24,2.1-6.31.39-1.11.77-2.25,1.19-3.34,1.32-3.48,2.73-6.86,4.26-10.1.16-.35.34-.67.51-1a124.89,124.89,0,0,1,6.76-12.26c.19-.3.36-.63.56-.93a106,106,0,0,1,6.46-9c.55-.69,1.1-1.36,1.66-2a101.6,101.6,0,0,1,6.85-7.52c.18-.19.35-.38.53-.56a97.24,97.24,0,0,1,8-6.9c.67-.52,1.34-1,2-1.53a92.44,92.44,0,0,1,8.58-5.83h0L609,960.78a96,96,0,0,0-8.73,5.83l-1.17.89-12.09,7a94.83,94.83,0,0,0-8.74,5.83c-.68.51-1.36,1-2,1.54a99.2,99.2,0,0,0-8,6.9c-.18.18-.34.37-.52.54-2.39,2.37-4.66,4.9-6.85,7.54l-1.67,2c-2.26,2.86-4.43,5.83-6.46,9l-.19.26c-.13.21-.23.46-.37.67a123.51,123.51,0,0,0-6.75,12.25c-.12.24-.27.44-.38.69s-.09.23-.15.34c-1.52,3.24-2.93,6.61-4.25,10.08-.11.3-.26.57-.37.88-.3.8-.54,1.67-.82,2.48-.73,2.07-1.44,4.16-2.09,6.31-.18.57-.39,1.1-.56,1.68-.24.81-.42,1.67-.65,2.48q-.75,2.68-1.42,5.44c-.18.76-.4,1.47-.58,2.23s-.32,1.69-.5,2.52c-.34,1.57-.67,3.16-1,4.77-.15.82-.35,1.6-.49,2.44s-.29,2-.44,3c-.23,1.43-.45,2.87-.65,4.33-.1.75-.23,1.46-.33,2.22-.15,1.24-.26,2.53-.39,3.79s-.3,2.73-.43,4.13c0,.55-.12,1.08-.17,1.64-.15,1.83-.24,3.72-.34,5.59-.06,1-.15,2-.19,3.07a3.54,3.54,0,0,1-.05.72c-.13,3.15-.21,6.36-.22,9.61v.57c0,3,0,6,.13,9a11.89,11.89,0,0,0,.08,1.69c0,1.22.11,2.45.17,3.68.07,1.42.11,2.83.2,4.25.06,1.09.18,2.19.26,3.28.09,1.29.19,2.57.3,3.86.08.85.12,1.69.2,2.54.18,1.82.41,3.65.61,5.48.13,1.07.23,2.13.36,3.2a7.82,7.82,0,0,0,.12,1.06c.42,3.33.89,6.67,1.42,10v.21c.07.47.17,1,.24,1.43.46,2.8.93,5.6,1.46,8.41.09.49.2,1,.3,1.48.26,1.34.54,2.69.82,4,.33,1.62.63,3.24,1,4.86.19.9.42,1.8.62,2.7.33,1.45.67,2.91,1,4.37.27,1.12.5,2.23.78,3.35.33,1.33.71,2.67,1.06,4s.75,2.92,1.15,4.38c.19.72.36,1.44.56,2.15.53,1.9,1.11,3.8,1.67,5.7.36,1.25.71,2.51,1.09,3.76.11.35.2.7.31,1q1.57,5.14,3.29,10.28l.05.12c.09.27.19.55.29.82q1.54,4.61,3.2,9.19c.17.47.36.94.53,1.41.42,1.15.86,2.3,1.29,3.45.61,1.62,1.2,3.25,1.83,4.87.4,1,.83,2,1.24,3.08.51,1.28,1,2.55,1.54,3.83.38.91.73,1.84,1.11,2.75.75,1.81,1.54,3.6,2.32,5.41.44,1,.86,2,1.31,3,.15.35.29.71.45,1.06q2.13,4.83,4.39,9.63c0,.12.11.24.17.36.39.84.81,1.67,1.21,2.5,1.21,2.53,2.41,5.07,3.67,7.58.19.38.4.76.59,1.14,1,2,2,3.93,3,5.89.84,1.62,1.65,3.26,2.52,4.87.15.29.32.57.48.86q4.15,7.73,8.59,15.31c.25.43.47.87.73,1.3s.61,1,.9,1.44q6.3,10.62,13.12,20.91c.25.37.47.77.72,1.14.42.63.88,1.23,1.3,1.86,3.67,5.44,7.41,10.81,11.28,16.07h0l.09.11q4.11,5.58,8.37,11l.38.5c2.13,2.7,4.29,5.35,6.47,8,.38.46.74.93,1.12,1.38a.39.39,0,0,0,.08.1c2.52,3,5.09,6,7.68,9l.38.43c.81.92,1.65,1.81,2.47,2.73,1.62,1.81,3.23,3.63,4.88,5.41l1,1c1.13,1.21,2.28,2.4,3.42,3.59s2.49,2.65,3.75,3.93c.47.48.95.93,1.42,1.41,1.25,1.25,2.5,2.48,3.76,3.71,1.07,1,2.12,2.13,3.2,3.16.61.59,1.24,1.15,1.86,1.74,1.35,1.28,2.71,2.53,4.08,3.79.93.86,1.85,1.75,2.8,2.61.74.67,1.51,1.3,2.25,2,1.37,1.21,2.73,2.4,4.11,3.58.83.72,1.65,1.47,2.48,2.17s1.83,1.49,2.75,2.24c1.33,1.11,2.67,2.2,4,3.28.7.56,1.39,1.15,2.09,1.71,1.15.9,2.31,1.75,3.47,2.64s2.48,1.91,3.73,2.84l1.53,1.18c1.55,1.14,3.12,2.21,4.68,3.32,1,.74,2.1,1.51,3.15,2.24l.82.58q4.2,2.88,8.45,5.59h.08l.57.35c2.58,1.62,5.16,3.22,7.77,4.75l2,1.14q3.18,1.83,6.33,3.54c.8.43,1.59.82,2.38,1.24l3.24,1.67c.84.43,1.69.9,2.53,1.31,1.34.67,2.67,1.26,4,1.89.95.45,1.91.92,2.85,1.35l1.19.56c2.67,1.19,5.33,2.32,8,3.37s5.37,2.09,8,3l1,.34c.94.33,1.87.61,2.81.92,1.37.45,2.75.94,4.11,1.35.68.2,1.34.36,2,.55,1.17.34,2.32.65,3.48,1,.91.24,1.83.53,2.73.75s1.86.41,2.79.62c1.17.27,2.34.54,3.51.78.61.13,1.24.3,1.85.42,1.09.21,2.16.34,3.24.53,1.35.23,2.7.47,4,.67.47.06,1,.17,1.42.23,1.11.15,2.19.21,3.29.33,1.44.16,2.87.33,4.29.44.42,0,.85.1,1.27.13,1,.07,1.91,0,2.87.1,1.69.08,3.37.15,5,.16h1.43c.74,0,1.44-.09,2.17-.1,2.1,0,4.18-.14,6.23-.3a13.57,13.57,0,0,0,1.91-.09c.46,0,.89-.15,1.35-.19,3.16-.33,6.28-.77,9.33-1.36a4.08,4.08,0,0,0,.77-.11h.14a100.42,100.42,0,0,0,12.63-3.47c.37-.13.76-.19,1.12-.31l.86-.35c1.79-.65,3.53-1.39,5.27-2.14.84-.37,1.7-.7,2.53-1.09,2.53-1.18,5-2.46,7.43-3.86l51.43-29.68C917.46,1430.82,915,1432.1,912.44,1433.29Z" transform="translate(440.81 358.94)" fill="url(#Безымянный_градиент_29)"/><path d="M1059.11,1310.79c0-.73-.08-1.48-.11-2.22,0-1.56-.14-3.14-.22-4.71-.09-1.85-.14-3.69-.26-5.56-.09-1.42-.23-2.86-.34-4.29-.12-1.65-.25-3.31-.39-5-.1-1.1-.16-2.19-.27-3.29-.22-2.39-.52-4.8-.8-7.2-.15-1.35-.28-2.71-.45-4.07-.06-.46-.09-.91-.15-1.38q-.82-6.45-1.85-13v-.31c-.1-.6-.22-1.21-.31-1.81-.6-3.64-1.21-7.28-1.89-10.93-.13-.65-.28-1.31-.4-2-.33-1.72-.7-3.44-1-5.16-.43-2.11-.83-4.22-1.29-6.33-.25-1.18-.56-2.36-.82-3.54q-.64-2.82-1.32-5.66c-.34-1.44-.65-2.88-1-4.32-.43-1.75-.92-3.49-1.38-5.24s-1-3.79-1.49-5.68c-.25-.93-.47-1.85-.73-2.78-.69-2.51-1.46-5-2.2-7.53-.46-1.58-.9-3.16-1.38-4.74-.14-.46-.26-.91-.4-1.37q-2-6.68-4.28-13.34l-.06-.18c-.15-.44-.31-.88-.46-1.33-1.32-3.89-2.66-7.78-4.07-11.65-.23-.64-.48-1.26-.71-1.89-.54-1.48-1.1-3-1.66-4.42-.79-2.11-1.56-4.23-2.38-6.34-.53-1.35-1.09-2.71-1.63-4.06-.65-1.63-1.3-3.26-2-4.89-.49-1.2-.95-2.4-1.44-3.59-1-2.4-2.06-4.8-3.09-7.2-.54-1.25-1.06-2.51-1.61-3.76-.2-.45-.38-.9-.58-1.34q-2.76-6.26-5.67-12.47c-.09-.18-.18-.35-.26-.53-.58-1.22-1.19-2.44-1.77-3.66-1.51-3.15-3-6.31-4.57-9.44-.25-.5-.52-1-.78-1.51-1.3-2.58-2.65-5.15-4-7.73-1.08-2.08-2.13-4.18-3.23-6.25l-.64-1.13q-5.38-10-11.15-19.87c-.32-.55-.61-1.12-.93-1.67s-.79-1.22-1.16-1.85q-8.21-13.85-17.09-27.22c-.32-.49-.6-1-.92-1.48-.55-.82-1.15-1.6-1.7-2.42-4.77-7.06-9.62-14-14.65-20.86h0l-.06-.09q-5.37-7.26-10.93-14.34l-.48-.63c-2.77-3.52-5.6-7-8.43-10.42-.48-.58-.95-1.19-1.43-1.77l-.1-.12q-4.92-5.93-10-11.67l-.51-.57c-1-1.17-2.08-2.3-3.12-3.46-2.13-2.37-4.25-4.77-6.41-7.1-.41-.45-.84-.87-1.25-1.32-1.46-1.56-2.94-3.07-4.4-4.61-1.64-1.71-3.25-3.45-4.91-5.14-.61-.63-1.25-1.22-1.87-1.85-1.6-1.61-3.22-3.19-4.83-4.78-1.4-1.37-2.77-2.77-4.18-4.12-.8-.77-1.62-1.5-2.43-2.26-1.75-1.66-3.51-3.29-5.27-4.91-1.22-1.12-2.42-2.29-3.65-3.4-1-.87-2-1.69-2.94-2.56-1.76-1.56-3.54-3.11-5.32-4.64-1.08-.93-2.14-1.9-3.23-2.82s-2.38-1.93-3.56-2.9c-1.74-1.44-3.47-2.87-5.22-4.27-.91-.73-1.8-1.49-2.71-2.21-1.49-1.18-3-2.28-4.49-3.42s-3.24-2.5-4.87-3.71l-2-1.52c-2-1.48-4.06-2.89-6.09-4.32-1.35-1-2.7-2-4.07-2.9-.36-.24-.71-.52-1.07-.76q-5.46-3.74-11-7.25l-.1-.07-.78-.47c-3.34-2.11-6.68-4.18-10-6.16l-2.55-1.38q-4.12-2.37-8.21-4.59c-1-.57-2.08-1.07-3.12-1.61-1.4-.75-2.79-1.46-4.18-2.17-1.1-.56-2.2-1.16-3.29-1.7-1.74-.86-3.47-1.64-5.21-2.46-1.23-.58-2.47-1.19-3.71-1.75l-1.54-.72q-5.19-2.32-10.33-4.39t-10.43-3.92c-.45-.15-.9-.28-1.35-.44-1.23-.42-2.45-.8-3.67-1.2-1.77-.58-3.56-1.21-5.32-1.74-.88-.27-1.74-.47-2.61-.72-1.52-.44-3-.85-4.52-1.25-1.18-.31-2.37-.68-3.54-1s-2.43-.52-3.65-.8c-1.51-.35-3-.7-4.53-1-.8-.17-1.61-.38-2.41-.54-1.43-.27-2.82-.45-4.23-.69-1.75-.31-3.49-.62-5.22-.87-.62-.08-1.25-.22-1.86-.3-1.44-.2-2.85-.28-4.29-.44-1.85-.21-3.71-.42-5.55-.56-.54,0-1.11-.14-1.65-.17-1.26-.09-2.48-.07-3.73-.13-2.2-.1-4.39-.2-6.55-.21-.61,0-1.24-.07-1.85-.06-1,0-1.86.11-2.81.13-2.73.06-5.44.18-8.12.38-.81.06-1.65,0-2.46.12-.6.06-1.17.19-1.77.26-4.1.43-8.14,1-12.09,1.75-.34.06-.69.08-1,.15l-.28.07c-.79.15-1.56.38-2.35.55-2.47.55-4.94,1.13-7.35,1.81-1.17.33-2.31.72-3.46,1.09-1.54.48-3.1.91-4.61,1.44-.38.14-.74.32-1.12.46-2.32.85-4.57,1.81-6.82,2.78-1.1.48-2.23.9-3.31,1.4-3.29,1.55-6.52,3.21-9.65,5l-51.25,29.82q4.71-2.73,9.66-5c.79-.37,1.62-.69,2.43-1l-34.09,19.74c3.13-1.82,6.36-3.48,9.65-5,1.08-.51,2.21-.93,3.31-1.41,2.25-1,4.5-1.93,6.82-2.78,1.88-.68,3.81-1.3,5.73-1.9,1.16-.36,2.29-.76,3.46-1.09,2.41-.68,4.88-1.26,7.35-1.81.79-.17,1.56-.39,2.35-.56.43-.08.87-.13,1.3-.21,4-.76,8-1.33,12.09-1.75,1.4-.15,2.82-.27,4.24-.37,2.67-.21,5.38-.33,8.11-.39,1.55,0,3.1-.09,4.66-.07,2.17,0,4.36.11,6.56.22,1.78.08,3.56.14,5.36.28s3.72.37,5.6.58,4,.44,6.1.73c1.74.26,3.49.57,5.25.87,2.2.38,4.4.77,6.62,1.23,1.51.31,3,.66,4.54,1,2.37.54,4.76,1.14,7.16,1.78,1.51.4,3,.81,4.55,1.25,2.61.76,5.25,1.58,7.89,2.45,1.24.41,2.47.79,3.72,1.22q11.63,4,23.62,9.46c1.25.57,2.51,1.18,3.76,1.77q4.2,2,8.44,4.13,2.1,1.06,4.22,2.18c3.75,2,7.52,4,11.31,6.21,4.22,2.43,8.42,5,12.59,7.63l.78.48c4.07,2.59,8.11,5.29,12.13,8.06,1.38,1,2.75,2,4.13,2.94,2.68,1.9,5.36,3.82,8,5.8,1.64,1.22,3.27,2.48,4.9,3.73,2.4,1.85,4.79,3.71,7.18,5.62,1.75,1.41,3.5,2.84,5.23,4.27q3.39,2.82,6.77,5.71c1.79,1.54,3.57,3.09,5.35,4.67Q799,972,802.29,975c1.77,1.64,3.54,3.27,5.3,4.94q3.31,3.13,6.59,6.37c1.62,1.59,3.24,3.17,4.84,4.79,2.28,2.29,4.53,4.63,6.78,7,1.46,1.54,2.94,3.06,4.4,4.61,2.58,2.77,5.13,5.59,7.66,8.43,1,1.15,2.09,2.28,3.12,3.45q5.37,6.09,10.59,12.36c.49.59,1,1.2,1.45,1.79,3,3.64,6,7.3,8.89,11,3.7,4.73,7.35,9.5,10.93,14.36l.06.08c5,6.82,9.89,13.81,14.65,20.87.88,1.29,1.76,2.58,2.62,3.89q8.9,13.37,17.09,27.22c.7,1.18,1.41,2.34,2.1,3.52q5.75,9.84,11.14,19.87c1.31,2.44,2.58,4.9,3.86,7.36s2.7,5.17,4,7.77c1.82,3.62,3.59,7.27,5.33,10.92.59,1.23,1.2,2.44,1.78,3.67q3.36,7.14,6.51,14.34c.55,1.25,1.07,2.51,1.61,3.77q2.32,5.37,4.53,10.77c.67,1.63,1.32,3.27,2,4.91q2.05,5.19,4,10.39c.56,1.47,1.12,2.94,1.66,4.41q2.49,6.8,4.79,13.6c.15.42.31.85.45,1.28q2.49,7.44,4.74,14.89c.48,1.58.92,3.16,1.38,4.74,1,3.43,2,6.87,2.93,10.31.52,1.89,1,3.78,1.49,5.68q1.25,4.78,2.39,9.57c.45,1.88.89,3.77,1.32,5.65.74,3.29,1.44,6.59,2.11,9.87.35,1.72.72,3.44,1,5.16q1.25,6.46,2.29,12.91c.09.6.21,1.2.31,1.81.78,4.89,1.45,9.78,2,14.64.17,1.37.3,2.72.45,4.08q.6,5.25,1.07,10.49c.14,1.65.27,3.31.39,5,.25,3.3.45,6.58.6,9.86.08,1.57.17,3.14.22,4.71.17,4.64.28,9.27.27,13.85,0,4.83-.15,9.55-.36,14.2-.06,1.32-.16,2.59-.24,3.89-.18,3.19-.4,6.36-.67,9.47-.16,1.8-.37,3.57-.56,5.35-.28,2.63-.59,5.25-.94,7.82-.26,1.9-.54,3.76-.84,5.62-.37,2.37-.78,4.71-1.21,7-.39,2.09-.81,4.15-1.24,6.18s-.92,4.14-1.41,6.18c-.58,2.39-1.2,4.74-1.84,7.07-.51,1.82-1,3.62-1.57,5.4-.85,2.79-1.77,5.51-2.72,8.2-.51,1.46-1,2.93-1.55,4.35-1.71,4.52-3.54,8.91-5.52,13.11-1.52,3.23-3.11,6.38-4.79,9.42l-.06.12c-1.69,3.07-3.48,6-5.32,8.9A143.71,143.71,0,0,1,946.8,1500c-.71.89-1.44,1.77-2.16,2.64-2.85,3.42-5.8,6.71-8.9,9.77-.23.24-.44.49-.68.72a128.56,128.56,0,0,1-10.37,9c-.87.68-1.75,1.34-2.64,2a125,125,0,0,1-11.34,7.58l51.2-29.85A121.54,121.54,0,0,0,973,1494.4l10.88-6.32a123,123,0,0,0,11.34-7.58c.89-.65,1.76-1.31,2.63-2a128.7,128.7,0,0,0,10.38-9c.23-.23.45-.49.68-.72q4.68-4.66,8.89-9.77c.73-.88,1.46-1.75,2.17-2.65,2.93-3.71,5.75-7.57,8.39-11.68a3.43,3.43,0,0,1,.24-.33q2.64-4.15,5.08-8.57l.06-.12q2.4-4.37,4.6-9c.07-.14.12-.3.19-.45,2-4.2,3.81-8.59,5.52-13.1.15-.39.33-.74.48-1.13.39-1,.7-2.17,1.07-3.23,1-2.69,1.87-5.41,2.72-8.2.23-.74.5-1.42.72-2.17.31-1,.55-2.17.84-3.23.65-2.33,1.27-4.68,1.84-7.07.24-1,.53-1.9.76-2.89s.43-2.21.66-3.29c.43-2,.85-4.09,1.24-6.18.2-1.06.45-2.09.63-3.16.22-1.26.38-2.59.58-3.86.29-1.86.58-3.73.84-5.62.13-1,.31-1.89.43-2.87.2-1.62.33-3.3.51-5s.39-3.54.55-5.35c.07-.72.17-1.41.22-2.13.2-2.41.32-4.89.46-7.34.07-1.3.18-2.58.24-3.89a5.82,5.82,0,0,1,.06-1q.25-6.15.29-12.49v-.74C1059.28,1318.57,1059.22,1314.69,1059.11,1310.79Z" transform="translate(440.81 358.94)" fill="url(#Безымянный_градиент_30)"/><path d="M728.64,920.2C871.25,1002.53,986.5,1202.09,986,1366S869.57,1596,727,1513.6s-257.86-281.9-257.4-445.83S586,837.86,728.64,920.2Zm-1.49,525.13c109.83,63.41,199.12,12.53,199.48-113.68S838.28,1051.8,728.45,988.4,529.33,975.94,529,1102.07s88.35,279.85,198.18,343.26" transform="translate(440.81 358.94)" fill="url(#Безымянный_градиент_31)"/></svg>