<svg id="Layer_4" data-name="Layer 4" xmlns="http://www.w3.org/2000/svg" xmlns:xlink="http://www.w3.org/1999/xlink" viewBox="0 0 2918.6 2432.2"><defs><linearGradient id="Безымянный_градиент" x1="640.08" y1="789.25" x2="266.53" y2="789.25" gradientTransform="matrix(1, 0, 0, -1, 0, 1720)" gradientUnits="userSpaceOnUse"><stop offset="0" stop-color="#ffd4ae"/><stop offset="1" stop-color="#e5a26a"/></linearGradient><linearGradient id="Безымянный_градиент_2" x1="825.66" y1="806.57" x2="735.58" y2="1114.12" gradientTransform="matrix(1, 0, 0, -1, 0, 1720)" gradientUnits="userSpaceOnUse"><stop offset="0" stop-color="#ffca85"/><stop offset="1" stop-color="#d88d35"/></linearGradient><linearGradient id="Безымянный_градиент_3" x1="697.96" y1="1347.16" x2="712.12" y2="1006.15" xlink:href="#Безымянный_градиент_2"/><linearGradient id="Безымянный_градиент_4" x1="912.2" y1="727.85" x2="995.3" y2="727.85" gradientTransform="matrix(1, 0, 0, -1, 459.1, 2075.4)" xlink:href="#Безымянный_градиент_2"/><linearGradient id="Безымянный_градиент_5" x1="859.86" y1="1025.74" x2="481.32" y2="1497.89" gradientTransform="matrix(1, 0, 0, -1, 0, 1720)" gradientUnits="userSpaceOnUse"><stop offset="0" stop-color="#b5b5b5"/><stop offset="1" stop-color="#e5e5e5"/></linearGradient><linearGradient id="Безымянный_градиент_6" x1="701.43" y1="1612.26" x2="632.25" y2="1161.39" gradientTransform="matrix(1, 0, 0, -1, 0, 1720)" gradientUnits="userSpaceOnUse"><stop offset="0" stop-color="#fbfbfb"/><stop offset="1" stop-color="#e5e5e5"/></linearGradient><linearGradient id="Безымянный_градиент_7" x1="937.29" y1="1607" x2="396.45" y2="1602.38" gradientTransform="matrix(1, 0, 0, -1, 0, 1720)" gradientUnits="userSpaceOnUse"><stop offset="0" stop-color="#3abaf9"/><stop offset="1" stop-color="#267ebd"/></linearGradient><linearGradient id="Безымянный_градиент_8" x1="681.11" y1="1653.09" x2="945.99" y2="1519.27" xlink:href="#Безымянный_градиент_7"/><linearGradient id="Безымянный_градиент_9" x1="881.37" y1="1320.42" x2="687.69" y2="1318.77" gradientTransform="matrix(1, 0, 0, -1, 459.1, 2075.4)" xlink:href="#Безымянный_градиент_7"/><linearGradient id="Безымянный_градиент_10" x1="753.99" y1="777.55" x2="401.99" y2="1199.95" xlink:href="#Безымянный_градиент_2"/><linearGradient id="Безымянный_градиент_11" x1="665.42" y1="1174.51" x2="443.55" y2="817.25" xlink:href="#Безымянный_градиент_2"/><linearGradient id="Безымянный_градиент_12" x1="404.03" y1="836.96" x2="132.48" y2="836.96" xlink:href="#Безымянный_градиент"/><linearGradient id="Безымянный_градиент_13" x1="330.54" y1="1092" x2="258.86" y2="1092" gradientTransform="matrix(1, 0, 0, -1, 0, 1720)" gradientUnits="userSpaceOnUse"><stop offset="0" stop-color="#f9d1b0"/><stop offset="1" stop-color="#eaeaea"/></linearGradient><linearGradient id="Безымянный_градиент_14" x1="-6983.29" y1="4950.97" x2="-7023.68" y2="5010.21" gradientTransform="matrix(2.9, -2.53, -2.53, -2.89, 33149.96, -2137.03)" xlink:href="#Безымянный_градиент_7"/><linearGradient id="Безымянный_градиент_15" x1="-7194.64" y1="4811.53" x2="-7130.36" y2="4811.53" gradientTransform="matrix(2.71, -2.37, -2.37, -2.71, 31097.32, -2668.12)" xlink:href="#Безымянный_градиент_7"/><linearGradient id="Безымянный_градиент_16" x1="-6539.71" y1="5500.24" x2="-6576.32" y2="5553.93" gradientTransform="matrix(3.97, -3.46, -3.46, -3.96, 45372.97, 507.12)" gradientUnits="userSpaceOnUse"><stop offset="0" stop-color="#7f7f7f"/><stop offset="1" stop-color="#444"/></linearGradient><linearGradient id="Безымянный_градиент_17" x1="-6717.62" y1="5393.86" x2="-6659.21" y2="5393.86" gradientTransform="matrix(3.72, -3.25, -3.25, -3.72, 42561.57, -219.71)" xlink:href="#Безымянный_градиент_16"/><linearGradient id="Безымянный_градиент_18" x1="3001.07" y1="794.59" x2="2674.15" y2="794.59" gradientTransform="translate(4403.33 1720) rotate(180)" xlink:href="#Безымянный_градиент"/><linearGradient id="Безымянный_градиент_19" x1="1345.98" y1="1409.47" x2="1510.49" y2="1119.15" xlink:href="#Безымянный_градиент_6"/><linearGradient id="Безымянный_градиент_20" x1="1404.56" y1="1647.17" x2="1472.25" y2="1527.71" gradientTransform="matrix(1, 0, 0, -1, 0, 1720)" gradientUnits="userSpaceOnUse"><stop offset="0" stop-color="#fe7f0a"/><stop offset="1" stop-color="#ffb538"/></linearGradient><linearGradient id="Безымянный_градиент_21" x1="2794.49" y1="836.17" x2="2556.84" y2="836.17" gradientTransform="translate(4403.33 1720) rotate(180)" xlink:href="#Безымянный_градиент"/><linearGradient id="Безымянный_градиент_22" x1="2730.17" y1="1059.5" x2="2667.44" y2="1059.5" gradientTransform="translate(4403.33 1720) rotate(180)" xlink:href="#Безымянный_градиент_13"/><linearGradient id="Безымянный_градиент_23" x1="-6508.6" y1="4549.44" x2="-6543.95" y2="4601.28" gradientTransform="matrix(-2.9, -2.53, 2.53, -2.89, -28746.63, -2137.03)" xlink:href="#Безымянный_градиент_7"/><linearGradient id="Безымянный_градиент_24" x1="-6678.67" y1="4381.25" x2="-6622.43" y2="4381.25" gradientTransform="matrix(-2.71, -2.37, 2.37, -2.71, -26693.99, -2668.12)" xlink:href="#Безымянный_градиент_7"/><linearGradient id="Безымянный_градиент_25" x1="-6190.23" y1="5209.71" x2="-6222.27" y2="5256.7" gradientTransform="matrix(-3.97, -3.46, 3.46, -3.96, -40969.64, 507.12)" xlink:href="#Безымянный_градиент_16"/><linearGradient id="Безымянный_градиент_26" x1="-6335.77" y1="5082.47" x2="-6284.63" y2="5082.47" gradientTransform="matrix(-3.72, -3.25, 3.25, -3.72, -38158.24, -219.71)" xlink:href="#Безымянный_градиент_16"/></defs><rect width="2918.6" height="2432.2" fill="none"/><g opacity="0.17"><ellipse cx="1320.73" cy="958.68" rx="136.6" ry="311" transform="translate(818.79 2633.1) rotate(-89.9)" fill="#4c0000" fill-opacity="0"/><ellipse cx="1320.73" cy="958.68" rx="133.3" ry="303.4" transform="translate(818.79 2633.1) rotate(-89.9)" fill="#4a0101" opacity="0.04" style="isolation:isolate"/><ellipse cx="1320.73" cy="958.68" rx="130" ry="295.9" transform="translate(818.79 2633.1) rotate(-89.9)" fill="#480202" opacity="0.08" style="isolation:isolate"/><ellipse cx="1320.73" cy="958.68" rx="126.7" ry="288.4" transform="translate(818.79 2633.1) rotate(-89.9)" fill="#460303" opacity="0.12" style="isolation:isolate"/><ellipse cx="1320.73" cy="958.68" rx="123.4" ry="280.9" transform="translate(818.79 2633.1) rotate(-89.9)" fill="#440404" opacity="0.15" style="isolation:isolate"/><ellipse cx="1320.73" cy="958.68" rx="120.1" ry="273.3" transform="translate(818.79 2633.1) rotate(-89.9)" fill="#420505" opacity="0.19" style="isolation:isolate"/><ellipse cx="1320.73" cy="958.68" rx="116.8" ry="265.8" transform="translate(818.79 2633.1) rotate(-89.9)" fill="#400606" opacity="0.23" style="isolation:isolate"/><ellipse cx="1320.73" cy="958.68" rx="113.5" ry="258.3" transform="translate(818.79 2633.1) rotate(-89.9)" fill="#3e0606" opacity="0.27" style="isolation:isolate"/><ellipse cx="1320.73" cy="958.68" rx="110.2" ry="250.8" transform="translate(818.79 2633.1) rotate(-89.9)" fill="#3c0707" opacity="0.31" style="isolation:isolate"/><ellipse cx="1320.73" cy="958.68" rx="106.9" ry="243.2" transform="translate(818.79 2633.1) rotate(-89.9)" fill="#3a0808" opacity="0.35" style="isolation:isolate"/><ellipse cx="1320.73" cy="958.68" rx="103.5" ry="235.7" transform="translate(818.79 2633.1) rotate(-89.9)" fill="#380909" opacity="0.38" style="isolation:isolate"/><ellipse cx="1320.73" cy="958.68" rx="100.2" ry="228.2" transform="translate(818.79 2633.1) rotate(-89.9)" fill="#360a0a" opacity="0.42" style="isolation:isolate"/><ellipse cx="1320.73" cy="958.68" rx="96.9" ry="220.6" transform="translate(818.79 2633.1) rotate(-89.9)" fill="#340b0b" opacity="0.46" style="isolation:isolate"/><ellipse cx="1320.73" cy="958.68" rx="93.6" ry="213.1" transform="translate(818.79 2633.1) rotate(-89.9)" fill="#330c0c" opacity="0.5" style="isolation:isolate"/><ellipse cx="1320.73" cy="958.68" rx="90.3" ry="205.6" transform="translate(818.79 2633.1) rotate(-89.9)" fill="#310d0d" opacity="0.54" style="isolation:isolate"/><ellipse cx="1320.73" cy="958.68" rx="87" ry="198.1" transform="translate(818.79 2633.1) rotate(-89.9)" fill="#2f0e0e" opacity="0.58" style="isolation:isolate"/><ellipse cx="1320.73" cy="958.68" rx="83.7" ry="190.5" transform="translate(818.79 2633.1) rotate(-89.9)" fill="#2d0f0f" opacity="0.62" style="isolation:isolate"/><ellipse cx="1320.73" cy="958.68" rx="80.4" ry="183" transform="translate(818.79 2633.1) rotate(-89.9)" fill="#2b1010" opacity="0.65" style="isolation:isolate"/><ellipse cx="1320.73" cy="958.68" rx="77.1" ry="175.5" transform="translate(818.79 2633.1) rotate(-89.9)" fill="#291111" opacity="0.69" style="isolation:isolate"/><ellipse cx="1320.73" cy="958.68" rx="73.8" ry="168" transform="translate(818.79 2633.1) rotate(-89.9)" fill="#271212" opacity="0.73" style="isolation:isolate"/><ellipse cx="1320.73" cy="958.68" rx="70.5" ry="160.4" transform="translate(818.79 2633.1) rotate(-89.9)" fill="#251212" opacity="0.77" style="isolation:isolate"/><ellipse cx="1320.73" cy="958.68" rx="67.2" ry="152.9" transform="translate(818.79 2633.1) rotate(-89.9)" fill="#231313" opacity="0.81" style="isolation:isolate"/><ellipse cx="1320.73" cy="958.68" rx="63.9" ry="145.4" transform="translate(818.79 2633.1) rotate(-89.9)" fill="#211414" opacity="0.85" style="isolation:isolate"/><ellipse cx="1320.73" cy="958.68" rx="60.6" ry="137.9" transform="translate(818.79 2633.1) rotate(-89.9)" fill="#1f1515" opacity="0.88" style="isolation:isolate"/><ellipse cx="1320.73" cy="958.68" rx="57.3" ry="130.3" transform="translate(818.79 2633.1) rotate(-89.9)" fill="#1d1616" opacity="0.92" style="isolation:isolate"/><ellipse cx="1320.73" cy="958.68" rx="54" ry="122.8" transform="translate(818.79 2633.1) rotate(-89.9)" fill="#1b1717" opacity="0.96" style="isolation:isolate"/><ellipse cx="1320.73" cy="958.68" rx="50.6" ry="115.3" transform="translate(818.79 2633.1) rotate(-89.9)" fill="#191818"/></g><g opacity="0.17"><ellipse cx="332.91" cy="1584.85" rx="136.6" ry="311" transform="translate(-793.44 2270.32) rotate(-89.9)" fill="#4c0000" fill-opacity="0"/><ellipse cx="332.91" cy="1584.85" rx="133.3" ry="303.4" transform="translate(-793.44 2270.32) rotate(-89.9)" fill="#4a0101" opacity="0.04" style="isolation:isolate"/><ellipse cx="332.91" cy="1584.85" rx="130" ry="295.9" transform="translate(-793.44 2270.32) rotate(-89.9)" fill="#480202" opacity="0.08" style="isolation:isolate"/><ellipse cx="332.91" cy="1584.85" rx="126.7" ry="288.4" transform="translate(-793.44 2270.32) rotate(-89.9)" fill="#460303" opacity="0.12" style="isolation:isolate"/><ellipse cx="332.91" cy="1584.85" rx="123.4" ry="280.9" transform="translate(-793.44 2270.32) rotate(-89.9)" fill="#440404" opacity="0.15" style="isolation:isolate"/><ellipse cx="332.91" cy="1584.85" rx="120.1" ry="273.3" transform="translate(-793.44 2270.32) rotate(-89.9)" fill="#420505" opacity="0.19" style="isolation:isolate"/><ellipse cx="332.91" cy="1584.85" rx="116.8" ry="265.8" transform="translate(-793.44 2270.32) rotate(-89.9)" fill="#400606" opacity="0.23" style="isolation:isolate"/><ellipse cx="332.91" cy="1584.85" rx="113.5" ry="258.3" transform="translate(-793.44 2270.32) rotate(-89.9)" fill="#3e0606" opacity="0.27" style="isolation:isolate"/><ellipse cx="332.91" cy="1584.85" rx="110.2" ry="250.8" transform="translate(-793.44 2270.32) rotate(-89.9)" fill="#3c0707" opacity="0.31" style="isolation:isolate"/><ellipse cx="332.91" cy="1584.85" rx="106.9" ry="243.2" transform="translate(-793.44 2270.32) rotate(-89.9)" fill="#3a0808" opacity="0.35" style="isolation:isolate"/><ellipse cx="332.91" cy="1584.85" rx="103.5" ry="235.7" transform="translate(-793.44 2270.32) rotate(-89.9)" fill="#380909" opacity="0.38" style="isolation:isolate"/><ellipse cx="332.91" cy="1584.85" rx="100.2" ry="228.2" transform="translate(-793.44 2270.32) rotate(-89.9)" fill="#360a0a" opacity="0.42" style="isolation:isolate"/><ellipse cx="332.91" cy="1584.85" rx="96.9" ry="220.6" transform="translate(-793.44 2270.32) rotate(-89.9)" fill="#340b0b" opacity="0.46" style="isolation:isolate"/><ellipse cx="332.91" cy="1584.85" rx="93.6" ry="213.1" transform="translate(-793.44 2270.32) rotate(-89.9)" fill="#330c0c" opacity="0.5" style="isolation:isolate"/><ellipse cx="332.91" cy="1584.85" rx="90.3" ry="205.6" transform="translate(-793.44 2270.32) rotate(-89.9)" fill="#310d0d" opacity="0.54" style="isolation:isolate"/><ellipse cx="332.91" cy="1584.85" rx="87" ry="198.1" transform="translate(-793.44 2270.32) rotate(-89.9)" fill="#2f0e0e" opacity="0.58" style="isolation:isolate"/><ellipse cx="332.91" cy="1584.85" rx="83.7" ry="190.5" transform="translate(-793.44 2270.32) rotate(-89.9)" fill="#2d0f0f" opacity="0.62" style="isolation:isolate"/><ellipse cx="332.91" cy="1584.85" rx="80.4" ry="183" transform="translate(-793.44 2270.32) rotate(-89.9)" fill="#2b1010" opacity="0.65" style="isolation:isolate"/><ellipse cx="332.91" cy="1584.85" rx="77.1" ry="175.5" transform="translate(-793.44 2270.32) rotate(-89.9)" fill="#291111" opacity="0.69" style="isolation:isolate"/><ellipse cx="332.91" cy="1584.85" rx="73.8" ry="168" transform="translate(-793.44 2270.32) rotate(-89.9)" fill="#271212" opacity="0.73" style="isolation:isolate"/><ellipse cx="332.91" cy="1584.85" rx="70.5" ry="160.4" transform="translate(-793.44 2270.32) rotate(-89.9)" fill="#251212" opacity="0.77" style="isolation:isolate"/><ellipse cx="332.91" cy="1584.85" rx="67.2" ry="152.9" transform="translate(-793.44 2270.32) rotate(-89.9)" fill="#231313" opacity="0.81" style="isolation:isolate"/><ellipse cx="332.91" cy="1584.85" rx="63.9" ry="145.4" transform="translate(-793.44 2270.32) rotate(-89.9)" fill="#211414" opacity="0.85" style="isolation:isolate"/><ellipse cx="332.91" cy="1584.85" rx="60.6" ry="137.9" transform="matrix(0, -1, 1, 0, -793.44, 2270.32)" fill="#1f1515" opacity="0.88" style="isolation:isolate"/><ellipse cx="332.91" cy="1584.85" rx="57.3" ry="130.3" transform="translate(-793.44 2270.32) rotate(-89.9)" fill="#1d1616" opacity="0.92" style="isolation:isolate"/><ellipse cx="332.91" cy="1584.85" rx="54" ry="122.8" transform="translate(-793.44 2270.32) rotate(-89.9)" fill="#1b1717" opacity="0.96" style="isolation:isolate"/><ellipse cx="332.91" cy="1584.85" rx="50.6" ry="115.3" transform="translate(-793.44 2270.32) rotate(-89.9)" fill="#191818"/></g><g opacity="0.17"><ellipse cx="1763.29" cy="1554.08" rx="136.6" ry="311" transform="translate(665.16 3669.99) rotate(-89.9)" fill="#4c0000" fill-opacity="0"/><ellipse cx="1763.29" cy="1554.08" rx="133.3" ry="303.4" transform="translate(665.16 3669.99) rotate(-89.9)" fill="#4a0101" opacity="0.04" style="isolation:isolate"/><ellipse cx="1763.29" cy="1554.08" rx="130" ry="295.9" transform="translate(665.16 3669.99) rotate(-89.9)" fill="#480202" opacity="0.08" style="isolation:isolate"/><ellipse cx="1763.29" cy="1554.08" rx="126.7" ry="288.4" transform="translate(665.16 3669.99) rotate(-89.9)" fill="#460303" opacity="0.12" style="isolation:isolate"/><ellipse cx="1763.29" cy="1554.08" rx="123.4" ry="280.9" transform="matrix(0, -1, 1, 0, 665.16, 3669.99)" fill="#440404" opacity="0.15" style="isolation:isolate"/><ellipse cx="1763.29" cy="1554.08" rx="120.1" ry="273.3" transform="translate(665.16 3669.99) rotate(-89.9)" fill="#420505" opacity="0.19" style="isolation:isolate"/><ellipse cx="1763.29" cy="1554.08" rx="116.8" ry="265.8" transform="translate(665.16 3669.99) rotate(-89.9)" fill="#400606" opacity="0.23" style="isolation:isolate"/><ellipse cx="1763.29" cy="1554.08" rx="113.5" ry="258.3" transform="translate(665.16 3669.99) rotate(-89.9)" fill="#3e0606" opacity="0.27" style="isolation:isolate"/><ellipse cx="1763.29" cy="1554.08" rx="110.2" ry="250.8" transform="translate(665.16 3669.99) rotate(-89.9)" fill="#3c0707" opacity="0.31" style="isolation:isolate"/><ellipse cx="1763.29" cy="1554.08" rx="106.9" ry="243.2" transform="translate(665.16 3669.99) rotate(-89.9)" fill="#3a0808" opacity="0.35" style="isolation:isolate"/><ellipse cx="1763.29" cy="1554.08" rx="103.5" ry="235.7" transform="translate(665.16 3669.99) rotate(-89.9)" fill="#380909" opacity="0.38" style="isolation:isolate"/><ellipse cx="1763.29" cy="1554.08" rx="100.2" ry="228.2" transform="translate(665.16 3669.99) rotate(-89.9)" fill="#360a0a" opacity="0.42" style="isolation:isolate"/><ellipse cx="1763.29" cy="1554.08" rx="96.9" ry="220.6" transform="translate(665.16 3669.99) rotate(-89.9)" fill="#340b0b" opacity="0.46" style="isolation:isolate"/><ellipse cx="1763.29" cy="1554.08" rx="93.6" ry="213.1" transform="translate(665.16 3669.99) rotate(-89.9)" fill="#330c0c" opacity="0.5" style="isolation:isolate"/><ellipse cx="1763.29" cy="1554.08" rx="90.3" ry="205.6" transform="translate(665.16 3669.99) rotate(-89.9)" fill="#310d0d" opacity="0.54" style="isolation:isolate"/><ellipse cx="1763.29" cy="1554.08" rx="87" ry="198.1" transform="translate(665.16 3669.99) rotate(-89.9)" fill="#2f0e0e" opacity="0.58" style="isolation:isolate"/><ellipse cx="1763.29" cy="1554.08" rx="83.7" ry="190.5" transform="translate(665.16 3669.99) rotate(-89.9)" fill="#2d0f0f" opacity="0.62" style="isolation:isolate"/><ellipse cx="1763.29" cy="1554.08" rx="80.4" ry="183" transform="translate(665.16 3669.99) rotate(-89.9)" fill="#2b1010" opacity="0.65" style="isolation:isolate"/><ellipse cx="1763.29" cy="1554.08" rx="77.1" ry="175.5" transform="translate(665.16 3669.99) rotate(-89.9)" fill="#291111" opacity="0.69" style="isolation:isolate"/><ellipse cx="1763.29" cy="1554.08" rx="73.8" ry="168" transform="translate(665.16 3669.99) rotate(-89.9)" fill="#271212" opacity="0.73" style="isolation:isolate"/><ellipse cx="1763.29" cy="1554.08" rx="70.5" ry="160.4" transform="translate(665.16 3669.99) rotate(-89.9)" fill="#251212" opacity="0.77" style="isolation:isolate"/><ellipse cx="1763.29" cy="1554.08" rx="67.2" ry="152.9" transform="translate(665.16 3669.99) rotate(-89.9)" fill="#231313" opacity="0.81" style="isolation:isolate"/><ellipse cx="1763.29" cy="1554.08" rx="63.9" ry="145.4" transform="translate(665.16 3669.99) rotate(-89.9)" fill="#211414" opacity="0.85" style="isolation:isolate"/><ellipse cx="1763.29" cy="1554.08" rx="60.6" ry="137.9" transform="translate(665.16 3669.99) rotate(-89.9)" fill="#1f1515" opacity="0.88" style="isolation:isolate"/><ellipse cx="1763.29" cy="1554.08" rx="57.3" ry="130.3" transform="translate(665.16 3669.99) rotate(-89.9)" fill="#1d1616" opacity="0.92" style="isolation:isolate"/><ellipse cx="1763.29" cy="1554.08" rx="54" ry="122.8" transform="translate(665.16 3669.99) rotate(-89.9)" fill="#1b1717" opacity="0.96" style="isolation:isolate"/><ellipse cx="1763.29" cy="1554.08" rx="50.6" ry="115.3" transform="translate(665.16 3669.99) rotate(-89.9)" fill="#191818"/></g><g opacity="0.17"><ellipse cx="708.41" cy="1047.77" rx="136.6" ry="311" transform="translate(118.47 2109.71) rotate(-89.9)" fill="#4c0000" fill-opacity="0"/><ellipse cx="708.41" cy="1047.77" rx="133.3" ry="303.4" transform="translate(118.47 2109.71) rotate(-89.9)" fill="#4a0101" opacity="0.04" style="isolation:isolate"/><ellipse cx="708.41" cy="1047.77" rx="130" ry="295.9" transform="translate(118.47 2109.71) rotate(-89.9)" fill="#480202" opacity="0.08" style="isolation:isolate"/><ellipse cx="708.41" cy="1047.77" rx="126.7" ry="288.4" transform="translate(118.47 2109.71) rotate(-89.9)" fill="#460303" opacity="0.12" style="isolation:isolate"/><ellipse cx="708.41" cy="1047.77" rx="123.4" ry="280.9" transform="translate(118.47 2109.71) rotate(-89.9)" fill="#440404" opacity="0.15" style="isolation:isolate"/><ellipse cx="708.41" cy="1047.77" rx="120.1" ry="273.3" transform="matrix(0, -1, 1, 0, 118.47, 2109.71)" fill="#420505" opacity="0.19" style="isolation:isolate"/><ellipse cx="708.41" cy="1047.77" rx="116.8" ry="265.8" transform="translate(118.47 2109.71) rotate(-89.9)" fill="#400606" opacity="0.23" style="isolation:isolate"/><ellipse cx="708.41" cy="1047.77" rx="113.5" ry="258.3" transform="translate(118.47 2109.71) rotate(-89.9)" fill="#3e0606" opacity="0.27" style="isolation:isolate"/><ellipse cx="708.41" cy="1047.77" rx="110.2" ry="250.8" transform="translate(118.47 2109.71) rotate(-89.9)" fill="#3c0707" opacity="0.31" style="isolation:isolate"/><ellipse cx="708.41" cy="1047.77" rx="106.9" ry="243.2" transform="translate(118.47 2109.71) rotate(-89.9)" fill="#3a0808" opacity="0.35" style="isolation:isolate"/><ellipse cx="708.41" cy="1047.77" rx="103.5" ry="235.7" transform="translate(118.47 2109.71) rotate(-89.9)" fill="#380909" opacity="0.38" style="isolation:isolate"/><ellipse cx="708.41" cy="1047.77" rx="100.2" ry="228.2" transform="translate(118.47 2109.71) rotate(-89.9)" fill="#360a0a" opacity="0.42" style="isolation:isolate"/><ellipse cx="708.41" cy="1047.77" rx="96.9" ry="220.6" transform="translate(118.47 2109.71) rotate(-89.9)" fill="#340b0b" opacity="0.46" style="isolation:isolate"/><ellipse cx="708.41" cy="1047.77" rx="93.6" ry="213.1" transform="translate(118.47 2109.71) rotate(-89.9)" fill="#330c0c" opacity="0.5" style="isolation:isolate"/><ellipse cx="708.41" cy="1047.77" rx="90.3" ry="205.6" transform="translate(118.47 2109.71) rotate(-89.9)" fill="#310d0d" opacity="0.54" style="isolation:isolate"/><ellipse cx="708.41" cy="1047.77" rx="87" ry="198.1" transform="translate(118.47 2109.71) rotate(-89.9)" fill="#2f0e0e" opacity="0.58" style="isolation:isolate"/><ellipse cx="708.41" cy="1047.77" rx="83.7" ry="190.5" transform="translate(118.47 2109.71) rotate(-89.9)" fill="#2d0f0f" opacity="0.62" style="isolation:isolate"/><ellipse cx="708.41" cy="1047.77" rx="80.4" ry="183" transform="translate(118.47 2109.71) rotate(-89.9)" fill="#2b1010" opacity="0.65" style="isolation:isolate"/><ellipse cx="708.41" cy="1047.77" rx="77.1" ry="175.5" transform="translate(118.47 2109.71) rotate(-89.9)" fill="#291111" opacity="0.69" style="isolation:isolate"/><ellipse cx="708.41" cy="1047.77" rx="73.8" ry="168" transform="translate(118.47 2109.71) rotate(-89.9)" fill="#271212" opacity="0.73" style="isolation:isolate"/><ellipse cx="708.41" cy="1047.77" rx="70.5" ry="160.4" transform="translate(118.47 2109.71) rotate(-89.9)" fill="#251212" opacity="0.77" style="isolation:isolate"/><ellipse cx="708.41" cy="1047.77" rx="67.2" ry="152.9" transform="translate(118.47 2109.71) rotate(-89.9)" fill="#231313" opacity="0.81" style="isolation:isolate"/><ellipse cx="708.41" cy="1047.77" rx="63.9" ry="145.4" transform="translate(118.47 2109.71) rotate(-89.9)" fill="#211414" opacity="0.85" style="isolation:isolate"/><ellipse cx="708.41" cy="1047.77" rx="60.6" ry="137.9" transform="translate(118.47 2109.71) rotate(-89.9)" fill="#1f1515" opacity="0.88" style="isolation:isolate"/><ellipse cx="708.41" cy="1047.77" rx="57.3" ry="130.3" transform="translate(118.47 2109.71) rotate(-89.9)" fill="#1d1616" opacity="0.92" style="isolation:isolate"/><ellipse cx="708.41" cy="1047.77" rx="54" ry="122.8" transform="translate(118.47 2109.71) rotate(-89.9)" fill="#1b1717" opacity="0.96" style="isolation:isolate"/><ellipse cx="708.41" cy="1047.77" rx="50.6" ry="115.3" transform="translate(118.47 2109.71) rotate(-89.9)" fill="#191818"/></g><path d="M394.8,1212.9s180.3-196.8,212.1-270.3S684.4,763,620,728,483.4,626.2,432.6,656.1,239.5,821.6,239.5,821.6Z" transform="translate(459.1 355.4)" fill="url(#Безымянный_градиент)"/><path d="M481.9,297l550.5,137.6a33.62,33.62,0,0,1,25.4,34.8l-31.4,500.9a33.66,33.66,0,0,1-45.2,29.5L443.1,802.5a33.45,33.45,0,0,1-22-33.1l19-441.2A33.62,33.62,0,0,1,481.9,297Z" transform="translate(459.1 355.4)" fill="url(#Безымянный_градиент_2)"/><path d="M450.8,301.2l550.5,137.6a33.62,33.62,0,0,1,25.4,34.8L995.3,974.5a33.66,33.66,0,0,1-45.2,29.5L412,806.7a33.45,33.45,0,0,1-22-33.1l19-441.2A33.66,33.66,0,0,1,450.8,301.2Z" transform="translate(459.1 355.4)" fill="url(#Безымянный_градиент_3)"/><path d="M889.1,1059.6l122.3-96.8v33.4L889.1,1093S900,1068.6,889.1,1059.6Z" transform="translate(459.1 355.4)" fill="#ffca85"/><polygon points="1454.4 1329.9 1371.3 1302.6 1376.6 1392.5 1454.4 1329.9" fill="url(#Безымянный_градиент_4)"/><path d="M956.6,125.4l-2.4,97.4-18,729.3a25.61,25.61,0,0,1-34.3,23.5L379,787.6a25.57,25.57,0,0,1-16.9-24.1V25.6a25.06,25.06,0,0,1,8.2-18.7,25.52,25.52,0,0,1,22-6.5L935.5,99.6A25.62,25.62,0,0,1,956.6,125.4Z" transform="translate(459.1 355.4)" fill="url(#Безымянный_градиент_5)"/><path d="M949.8,129.9l-2.4,96.2-.1,5.4L929.4,956.6a25.61,25.61,0,0,1-34.3,23.5l-522.9-188a25.66,25.66,0,0,1-17-24.1V30.2A25.63,25.63,0,0,1,385.5,5l543.2,99.1A25.69,25.69,0,0,1,949.8,129.9Z" transform="translate(459.1 355.4)" fill="url(#Безымянный_градиент_6)"/><path d="M949.8,129.9l-2.4,96.2L355.3,104.3V30.2A25.63,25.63,0,0,1,385.6,5l543.2,99.1A25.7,25.7,0,0,1,949.8,129.9Z" transform="translate(459.1 355.4)" fill="url(#Безымянный_градиент_7)"/><path d="M956.6,125.4l-2.4,97.4-6.7,3.3,2.4-96.2a25.63,25.63,0,0,0-21-25.8L385.5,5a25.12,25.12,0,0,0-15.2,1.9,25.52,25.52,0,0,1,22-6.5L935.5,99.6A25.62,25.62,0,0,1,956.6,125.4Z" transform="translate(459.1 355.4)" fill="url(#Безымянный_градиент_8)"/><polygon points="1358.5 908.7 1358.5 655.6 1118.5 603.5 1118.5 848.5 1358.5 908.7" fill="#fff"/><polygon points="1132.8 837.4 1132.8 621.3 1344.1 667.1 1344.1 890.4 1132.8 837.4" fill="url(#Безымянный_градиент_9)"/><line x1="874.8" y1="566.8" x2="1063.8" y2="612.5" fill="none" stroke="#b3b3b3" stroke-linecap="round" stroke-linejoin="round" stroke-width="7.16"/><line x1="874.8" y1="603.5" x2="1063.8" y2="649.2" fill="none" stroke="#b3b3b3" stroke-linecap="round" stroke-linejoin="round" stroke-width="7.16"/><line x1="874.8" y1="640.2" x2="1063.8" y2="685.9" fill="none" stroke="#b3b3b3" stroke-linecap="round" stroke-linejoin="round" stroke-width="7.16"/><line x1="874.8" y1="676.9" x2="1063.8" y2="722.6" fill="none" stroke="#b3b3b3" stroke-linecap="round" stroke-linejoin="round" stroke-width="7.16"/><line x1="874.8" y1="713.6" x2="1063.8" y2="759.3" fill="none" stroke="#b3b3b3" stroke-linecap="round" stroke-linejoin="round" stroke-width="7.16"/><line x1="874.8" y1="750.3" x2="1063.8" y2="796" fill="none" stroke="#b3b3b3" stroke-linecap="round" stroke-linejoin="round" stroke-width="7.16"/><path d="M279.3,335l248.2,64.2a40,40,0,0,1,29.2,30.6l16.2,77.1a40.27,40.27,0,0,0,29.7,30.8l265.5,66a34,34,0,0,1,25.7,30.9l24.4,412.3c1.6,27.4-29.9,58.1-55.8,49.1l-540-199.8a63.67,63.67,0,0,1-42.7-56.3l-55-472.3C223.6,351.6,263.9,331,279.3,335Z" transform="translate(459.1 355.4)" fill="url(#Безымянный_градиент_10)"/><path d="M250.3,352.5l248.2,64.2a40,40,0,0,1,29.2,30.6l16.2,77.1a40.27,40.27,0,0,0,29.7,30.8l265.5,66a34,34,0,0,1,25.7,30.9l24.4,412.3a38.49,38.49,0,0,1-51.1,38.6L293.4,913.7a63.67,63.67,0,0,1-42.7-56.3L221,376.7A23.5,23.5,0,0,1,250.3,352.5Z" transform="translate(459.1 355.4)" fill="url(#Безымянный_градиент_11)"/><path d="M153.3,1156.2s3.5-124.9-12.8-164.6-35-89.8-24.5-143.5c6.4-32.9,27.3-84.1,42.5-118.9a149.66,149.66,0,0,1,47.3-59.8c31.6-23.7,77.6-59.3,85.1-72.1,11.7-19.8,37.1-43.5,57.2,0s-52.5,141.5-52.5,141.5l-28,89.4S358.9,880.7,397.2,960s-4.8,233.3-4.8,233.3Z" transform="translate(459.1 355.4)" fill="url(#Безымянный_градиент_12)"/><path d="M304.8,594.7s39,5.4,25.1,23.9-32.4,42.7-42.5,42.7-33.7-20.2-33.7-20.2Z" transform="translate(459.1 355.4)" opacity="0.78" fill="url(#Безымянный_градиент_13)" style="isolation:isolate"/><path d="M422.6,1121c-1.3-1.4-2.6-2.7-3.9-4.1l-1.8-1.8-.8-.8-1.4-1.4-4.2-3.9c-1.5-1.3-2.9-2.6-4.5-3.8l-.1-.1-.1-.1c-1.4-1.2-2.9-2.4-4.3-3.5-1.6-1.3-3.2-2.5-4.9-3.7a20.28,20.28,0,0,1-1.8-1.3l-1.1-.8-2.2-1.6c-1.7-1.2-3.5-2.4-5.3-3.6-1.3-.9-2.6-1.7-3.9-2.5-.2-.2-.5-.3-.7-.5a3,3,0,0,1-.7-.5l-5.4-3.3c-1.8-1-3.6-2.1-5.4-3.1a4.67,4.67,0,0,0-1-.5,5.58,5.58,0,0,1-.8-.5c-1.2-.6-2.3-1.3-3.5-1.9-1.8-.9-3.6-1.9-5.4-2.8-1.3-.6-2.6-1.3-3.9-1.9-.2-.1-.5-.2-.7-.3s-.5-.3-.8-.4c-1.9-.9-3.7-1.7-5.6-2.5-2.1-.9-4.1-1.8-6.2-2.6a6.89,6.89,0,0,1-1-.4c-.4-.2-.8-.3-1.2-.5-1.7-.7-3.4-1.4-5.1-2-2.1-.8-4.3-1.5-6.4-2.3l-3.3-1.2a6.94,6.94,0,0,1-1.3-.5c-1.9-.6-3.8-1.1-5.7-1.7-2.8-.9-5.6-1.8-8.4-2.5-.5-.1-.9-.3-1.3-.4-4.1-1.1-8.2-2.1-12.4-3h0c-2.8-.6-5.6-1.2-8.3-1.7l-6.8-1.2h-.2c-2.3-.4-4.5-.7-6.8-1s-4.5-.6-6.7-.8c-.4,0-.7-.1-1.1-.1s-.8-.1-1.1-.1c-1.5-.2-3.1-.3-4.6-.4-2.3-.2-4.6-.3-6.9-.4a14.77,14.77,0,0,1-2.1-.1,8.6,8.6,0,0,1-1.6-.1c-1.1,0-2.2-.1-3.3-.1h-6.8c-1,0-2,.1-3,.1h-1.5a16.2,16.2,0,0,0-2.2.1c-2.1.1-4.3.2-6.4.4-1.5.1-3,.3-4.5.5-.3,0-.6.1-.8.1a2.2,2.2,0,0,0-.8.1c-2,.2-3.9.5-5.8.8s-3.8.6-5.7,1a5.85,5.85,0,0,1-1.3.2c-1.4.3-2.8.6-4.1.9-1.8.4-3.5.8-5.2,1.3-1.1.3-2.2.6-3.2.9-.3.1-.5.1-.8.2s-.6.2-1,.3c-1.6.5-3.2,1-4.8,1.6s-3.2,1.1-4.7,1.7c-.3.1-.5.2-.8.3a4.88,4.88,0,0,1-.7.3c-1,.4-2,.8-3,1.3-1.5.7-3,1.4-4.5,2.2-.7.4-1.4.7-2.1,1.1-.3.2-.6.3-.9.5s-.9.5-1.3.7c-1.5.9-3,1.8-4.4,2.7-.9.6-1.7,1.2-2.5,1.8l-.9.6a5.55,5.55,0,0,0-.8.6c-1.5,1.1-2.9,2.3-4.2,3.4-.6.5-1.1,1.1-1.7,1.6a15.93,15.93,0,0,0-1.3,1.3,15.93,15.93,0,0,0-1.3,1.3c-1.6,1.6-3,3.4-4.4,5.1a.1.1,0,0,1-.1.1,14.8,14.8,0,0,0-.8,1.3c-1.3,1.8-2.6,3.7-3.7,5.6-.1.2-.1.3-.2.5a63.94,63.94,0,0,0-4,8.9l-40.3,108.4a47.48,47.48,0,0,1,4-8.9,59.3,59.3,0,0,1,4-6.2c.3-.4.5-.8.8-1.2a58.68,58.68,0,0,1,5.8-6.5c.4-.4.9-.8,1.3-1.2a74.45,74.45,0,0,1,6.7-5.7l.9-.6a95.41,95.41,0,0,1,8.2-5.2c.3-.2.6-.3.9-.5,3-1.6,6.2-3.2,9.6-4.6a4.88,4.88,0,0,1,.7-.3c3.5-1.4,7.3-2.7,11.2-3.9.3-.1.5-.1.8-.2,4-1.2,8.2-2.2,12.6-3.1s9-1.6,13.6-2.1a2,2,0,0,0,.8-.1c4.3-.5,8.7-.8,13.1-.9h1.5c4.3-.1,8.7-.1,13.1,0a9.15,9.15,0,0,1,1.6.1c4.5.2,9,.5,13.6.9.4,0,.7.1,1.1.1,4.9.5,9.8,1.1,14.7,1.9h.1c5,.8,10.1,1.8,15.1,2.9h0c4.6,1,9.1,2.2,13.7,3.4,2.8.8,5.6,1.7,8.4,2.5,2.3.7,4.7,1.4,7,2.2l3.3,1.2c3.9,1.4,7.7,2.8,11.5,4.3.4.2.8.3,1.2.5,4.6,1.9,9.1,3.8,13.6,5.9a2.51,2.51,0,0,1,.7.4c4.4,2.1,8.6,4.2,12.8,6.5.3.1.5.3.8.4,4.3,2.3,8.5,4.8,12.6,7.4a3,3,0,0,1,.7.5c3.9,2.5,7.7,5,11.4,7.7a8.74,8.74,0,0,1,1,.8c3.8,2.8,7.5,5.6,11,8.5.1,0,.1.1.2.1,3.6,3,6.9,6,10.2,9.2l.8.8c3.2,3.2,6.3,6.4,9.2,9.7a119.22,119.22,0,0,1,7.9,10l.6.9c2.2,3.1,4.1,6.1,5.9,9.2.2.4.5.8.7,1.2a92.93,92.93,0,0,1,4.5,8.9c.2.6.5,1.1.7,1.7a75.91,75.91,0,0,1,3,8.3l.3.9a65.82,65.82,0,0,1,2,9.4,4.87,4.87,0,0,1,.1,1.2,62.72,62.72,0,0,1,.5,7.4,24.37,24.37,0,0,1-.1,2.7c-.1,2-.2,4-.5,6a21.66,21.66,0,0,1-.4,2.5,53.77,53.77,0,0,1-2,7.9h0L449.5,1203a53.77,53.77,0,0,0,2-7.9l.3-2.4c.3-2,.4-4,.5-6,0-.9.1-1.7.1-2.6a62.72,62.72,0,0,0-.5-7.4,4.87,4.87,0,0,1-.1-1.2v-.3a69.17,69.17,0,0,0-1.9-8.8c0-.1-.1-.2-.1-.3l-.3-.9c-.6-1.9-1.1-3.7-1.8-5.6-.3-.9-.8-1.8-1.2-2.8-.2-.6-.5-1.1-.7-1.7l-.6-1.5c-.8-1.8-1.7-3.6-2.7-5.5a18.58,18.58,0,0,0-1.1-1.9c-.2-.4-.5-.8-.7-1.2-.4-.6-.7-1.2-1.1-1.9-1-1.6-2-3.1-3-4.7-.6-.9-1.2-1.7-1.8-2.6l-.6-.9c-.3-.4-.5-.7-.8-1.1-1.1-1.4-2.2-2.9-3.3-4.3s-2.3-2.9-3.6-4.3c-.1-.1-.1-.2-.2-.2C424.9,1123.6,423.8,1122.3,422.6,1121Z" transform="translate(459.1 355.4)" fill="url(#Безымянный_градиент_14)"/><path d="M167.2,1158.6c72.5-14.3,170.4,19.2,218.6,74.7s28.5,112-44,126.3-170.3-19.2-218.5-74.7S94.8,1172.8,167.2,1158.6Z" transform="translate(459.1 355.4)" fill="url(#Безымянный_градиент_15)"/><path d="M414.3,1244.6c-1.6-1.7-3.2-3.4-4.8-5a23.91,23.91,0,0,0-2.3-2.2,9.43,9.43,0,0,1-1-1c-.6-.6-1.2-1.2-1.8-1.7-1.7-1.6-3.5-3.2-5.2-4.8s-3.7-3.2-5.5-4.8c-.1,0-.1-.1-.2-.1s-.1-.1-.2-.1c-1.8-1.5-3.6-2.9-5.4-4.4-2-1.6-4-3.1-6.1-4.7l-2.2-1.6c-.4-.3-.9-.6-1.3-.9-.9-.7-1.8-1.3-2.8-2-2.2-1.5-4.3-3-6.6-4.4-1.6-1.1-3.3-2.1-4.9-3.1l-.9-.6-.9-.6c-2.2-1.4-4.5-2.7-6.7-4s-4.5-2.6-6.8-3.9c-.4-.2-.8-.4-1.3-.7a10.91,10.91,0,0,0-1.1-.6c-1.4-.8-2.9-1.6-4.3-2.3-2.2-1.2-4.5-2.3-6.7-3.4-1.6-.8-3.3-1.6-4.9-2.4-.3-.1-.6-.3-.9-.4s-.7-.3-1-.5c-2.3-1.1-4.7-2.1-7-3.2-2.6-1.1-5.2-2.2-7.7-3.3-.4-.2-.8-.3-1.2-.5l-1.5-.6c-2.1-.8-4.2-1.7-6.3-2.5-2.6-1-5.3-1.9-8-2.8-1.4-.5-2.7-1-4.1-1.5-.5-.2-1.1-.4-1.6-.6-2.4-.8-4.8-1.4-7.1-2.1-3.5-1.1-7-2.2-10.5-3.2-.6-.2-1.1-.3-1.7-.5-5.1-1.4-10.2-2.6-15.4-3.8h-.1c-3.5-.8-6.9-1.5-10.4-2.1l-8.4-1.5h-.3c-2.8-.5-5.7-.9-8.5-1.2s-5.6-.7-8.3-1a8686225934308.07,8686225934308.07,0,0,1-2.8-.2c-1.9-.2-3.8-.4-5.7-.5-2.9-.2-5.7-.4-8.5-.5-.9,0-1.7-.1-2.6-.1a13.4,13.4,0,0,1-2-.1c-1.4,0-2.7-.1-4.1-.1h-8.5c-1.2,0-2.5.1-3.7.1a12.75,12.75,0,0,0-1.9.1c-.9,0-1.8.1-2.7.1-2.7.1-5.3.3-7.9.5l-5.7.6c-.3,0-.7.1-1,.1s-.6.1-1,.1c-2.4.3-4.9.6-7.3,1l-7.1,1.2-1.6.3c-1.7.3-3.5.7-5.1,1.1-2.2.5-4.3,1-6.5,1.6-1.4.4-2.7.8-4,1.2l-1,.3-1.2.3c-2,.6-4,1.3-5.9,2s-3.9,1.4-5.8,2.2a10.37,10.37,0,0,1-1,.4,3,3,0,0,0-.8.4c-1.3.5-2.6,1.1-3.8,1.6-1.9.9-3.8,1.8-5.6,2.7-.9.4-1.7.9-2.6,1.4-.4.2-.7.4-1.1.6s-1.1.6-1.6.9c-1.9,1.1-3.7,2.2-5.4,3.4-1.1.7-2.1,1.5-3.1,2.2l-1.1.8-1,.7c-1.8,1.4-3.6,2.8-5.3,4.3-.7.7-1.4,1.4-2.1,2-.5.5-1.1,1-1.6,1.6s-1.1,1.1-1.7,1.6a81.14,81.14,0,0,0-5.5,6.4.1.1,0,0,1-.1.1,14,14,0,0,0-1,1.6,60.15,60.15,0,0,0-4.6,7l-.3.6a68.71,68.71,0,0,0-5,11.1l-59,174.1a68.71,68.71,0,0,1,5-11.1,71.05,71.05,0,0,1,4.9-7.7c.4-.5.6-1,1-1.5a90.73,90.73,0,0,1,7.2-8.1c.5-.5,1.1-1,1.6-1.6a82,82,0,0,1,8.4-7l1.1-.8a104.28,104.28,0,0,1,10.2-6.5c.4-.2.7-.4,1.1-.6,3.7-2,7.7-3.9,11.9-5.7a2,2,0,0,0,.8-.4c4.4-1.8,9-3.4,13.9-4.9l1-.3c5-1.5,10.2-2.7,15.6-3.8s11.2-1.9,16.9-2.6c.3,0,.7-.1,1-.1,5.4-.6,10.8-1,16.4-1.2a10.87,10.87,0,0,0,1.8-.1c5.4-.2,10.8-.2,16.3,0a12.1,12.1,0,0,1,1.9.1c5.6.2,11.2.6,16.9,1.1.5,0,.9.1,1.4.1q9.15.9,18.3,2.4h.2c6.3,1,12.5,2.2,18.8,3.6h.1c5.7,1.3,11.4,2.7,17,4.3,3.5,1,7,2.1,10.5,3.2,2.9.9,5.8,1.7,8.7,2.7,1.4.5,2.7,1,4.1,1.5,4.8,1.7,9.6,3.4,14.3,5.3l1.5.6c5.7,2.3,11.4,4.8,16.9,7.4.3.1.6.3.9.4,5.4,2.6,10.8,5.3,16,8.1a4.67,4.67,0,0,0,1,.5c5.3,2.9,10.6,6,15.7,9.2l.9.6c4.9,3.1,9.6,6.3,14.2,9.6.4.3.9.6,1.3.9,4.7,3.4,9.3,7,13.7,10.6l.2.2c4.4,3.7,8.7,7.5,12.7,11.4a9.43,9.43,0,0,1,1,1c4,3.9,7.9,8,11.5,12.1s6.8,8.3,9.8,12.4a10.47,10.47,0,0,0,.8,1.1c2.7,3.8,5.2,7.6,7.4,11.4l.9,1.5c2.1,3.7,3.9,7.4,5.6,11.1l.9,2.1a86.3,86.3,0,0,1,3.7,10.4c.1.4.3.8.4,1.2a87.62,87.62,0,0,1,2.5,11.7,7.57,7.57,0,0,1,.1,1.5c.4,3.1.6,6.2.7,9.2,0,1.1,0,2.2-.1,3.3q-.15,3.75-.6,7.5c-.1,1-.2,2.1-.4,3.1a82.38,82.38,0,0,1-2.4,9.8h0l59-174.1a65.21,65.21,0,0,0,2.5-9.9c.2-1,.3-2,.4-3q.45-3.75.6-7.5c0-1.1.1-2.2.1-3.3a57.88,57.88,0,0,0-.7-9.2,7.57,7.57,0,0,1-.1-1.5v-.4a90.51,90.51,0,0,0-2.4-11c0-.1-.1-.2-.1-.4-.1-.4-.3-.8-.4-1.1-.7-2.3-1.4-4.6-2.3-7-.4-1.1-1-2.3-1.5-3.5l-.9-2.1c-.3-.6-.5-1.2-.8-1.8-1-2.3-2.2-4.5-3.4-6.8-.4-.8-.9-1.6-1.4-2.4l-.9-1.5c-.5-.8-.9-1.5-1.3-2.3-1.2-2-2.4-3.9-3.8-5.9a37.12,37.12,0,0,0-2.3-3.2c-.3-.4-.5-.7-.8-1.1a12.13,12.13,0,0,0-1-1.4q-2-2.7-4.2-5.4-2.1-2.7-4.5-5.4l-.3-.3A24,24,0,0,0,414.3,1244.6Z" transform="translate(459.1 355.4)" fill="url(#Безымянный_градиент_16)"/><path d="M87.5,1330.5c90.3-17.7,212.1,23.9,272.2,93.1s35.5,139.5-54.7,157.2-212-23.9-272-93C-27.2,1418.6-2.7,1348.2,87.5,1330.5Z" transform="translate(459.1 355.4)" fill="url(#Безымянный_градиент_17)"/><path d="M1617,1172.3s-157.8-172.2-185.6-236.5-67.9-157.2-11.6-187.8,119.6-89.1,164-62.9,169,144.8,169,144.8Z" transform="translate(459.1 355.4)" fill="url(#Безымянный_градиент_18)"/><path d="M1792.9,127.4V866.7a53.13,53.13,0,0,1-53.1,53.1H1163.6a53.22,53.22,0,0,1-53.2-53.1V127.4a53.16,53.16,0,0,1,53.2-53.1h576.2A53.07,53.07,0,0,1,1792.9,127.4Z" transform="translate(459.1 355.4)" fill="url(#Безымянный_градиент_19)"/><path d="M1792.9,127.4v71.1H1110.4V127.4a53.16,53.16,0,0,1,53.2-53.1h576.2A53.07,53.07,0,0,1,1792.9,127.4Z" transform="translate(459.1 355.4)" fill="url(#Безымянный_градиент_20)"/><line x1="1813.7" y1="627.2" x2="2186" y2="627.2" fill="none" stroke="#b3b3b3" stroke-linecap="round" stroke-linejoin="round" stroke-width="6.67"/><line x1="1813.7" y1="667.4" x2="2186" y2="667.4" fill="none" stroke="#b3b3b3" stroke-linecap="round" stroke-linejoin="round" stroke-width="5.85"/><line x1="1813.7" y1="707.6" x2="2186" y2="707.6" fill="none" stroke="#b3b3b3" stroke-linecap="round" stroke-linejoin="round" stroke-width="5.85"/><line x1="1655" y1="747.8" x2="2186" y2="747.8" fill="none" stroke="#b3b3b3" stroke-linecap="round" stroke-linejoin="round" stroke-width="6.99"/><line x1="1655" y1="788" x2="2186" y2="788" fill="none" stroke="#b3b3b3" stroke-linecap="round" stroke-linejoin="round" stroke-width="6.99"/><line x1="1655" y1="828.2" x2="2186" y2="828.2" fill="none" stroke="#b3b3b3" stroke-linecap="round" stroke-linejoin="round" stroke-width="6.99"/><line x1="1655" y1="868.4" x2="2136" y2="868.4" fill="none" stroke="#b3b3b3" stroke-linecap="round" stroke-linejoin="round" stroke-width="6.65"/><line x1="1701.7" y1="948.8" x2="2186" y2="948.8" fill="none" stroke="#b3b3b3" stroke-linecap="round" stroke-linejoin="round" stroke-width="6.67"/><line x1="1655" y1="989" x2="2186" y2="989" fill="none" stroke="#b3b3b3" stroke-linecap="round" stroke-linejoin="round" stroke-width="6.99"/><line x1="1655" y1="1029.2" x2="2186" y2="1029.2" fill="none" stroke="#b3b3b3" stroke-linecap="round" stroke-linejoin="round" stroke-width="6.99"/><line x1="1655" y1="1069.4" x2="2186" y2="1069.4" fill="none" stroke="#b3b3b3" stroke-linecap="round" stroke-linejoin="round" stroke-width="6.99"/><line x1="1655" y1="1109.7" x2="2186" y2="1109.7" fill="none" stroke="#b3b3b3" stroke-linecap="round" stroke-linejoin="round" stroke-width="6.99"/><line x1="1655" y1="1149.9" x2="2186" y2="1149.9" fill="none" stroke="#b3b3b3" stroke-linecap="round" stroke-linejoin="round" stroke-width="6.99"/><line x1="1655" y1="1190.1" x2="2136" y2="1190.1" fill="none" stroke="#b3b3b3" stroke-linecap="round" stroke-linejoin="round" stroke-width="6.65"/><path d="M1227.7,361.5,1203,268.6h13.3l11.6,47c2.9,11.6,5.5,23.2,7.2,32.1h.3c1.6-9.2,4.6-20.3,8-32.3l13-46.9h13.2l11.9,47.1c2.7,11,5.4,22.1,6.8,31.8h.3c2-10.2,4.8-20.5,7.8-32.1l12.9-46.9h12.9l-27.6,92.9h-13.2l-12.3-48.4c-3-11.9-5.1-21-6.4-30.3h-.3a275.83,275.83,0,0,1-7.5,30.3L1241,361.3h-13.3Z" transform="translate(459.1 355.4)" fill="#b3b3b3"/><path d="M1828.3,1122.7s-3.1-109.3,11.2-144,30.6-78.6,21.4-125.6c-5.6-28.8-23.9-73.6-37.2-104a131.52,131.52,0,0,0-41.4-52.3c-27.7-20.7-67.9-51.9-74.5-63.1-10.2-17.4-32.4-38-50,0s45.9,123.8,45.9,123.8l24.5,78.3s-79.9,45.9-113.4,115.4,4.2,204.2,4.2,204.2Z" transform="translate(459.1 355.4)" fill="url(#Безымянный_градиент_21)"/><path d="M1695.7,631.3s-34.1,4.7-22,21,28.4,37.4,37.2,37.4,29.5-17.7,29.5-17.7Z" transform="translate(459.1 355.4)" opacity="0.78" fill="url(#Безымянный_градиент_22)" style="isolation:isolate"/><path d="M1592.6,1091.9c1.1-1.2,2.2-2.4,3.4-3.5.5-.5,1.1-1,1.6-1.6l.7-.7,1.2-1.2c1.2-1.1,2.4-2.3,3.7-3.4s2.6-2.3,3.9-3.4l.1-.1.1-.1c1.2-1,2.5-2.1,3.8-3.1s2.8-2.2,4.3-3.3c.5-.4,1-.7,1.6-1.1a5.5,5.5,0,0,0,.9-.7c.7-.5,1.3-.9,1.9-1.4,1.5-1.1,3.1-2.1,4.6-3.1,1.1-.7,2.3-1.5,3.4-2.2.2-.1.4-.3.6-.4s.4-.3.6-.4c1.6-1,3.1-1.9,4.7-2.8l4.8-2.7c.3-.2.6-.3.9-.5s.5-.3.7-.4c1-.5,2-1.1,3-1.6,1.6-.8,3.1-1.6,4.7-2.4,1.1-.6,2.3-1.1,3.5-1.7l.6-.3c.2-.1.5-.2.7-.3,1.6-.8,3.3-1.5,4.9-2.2,1.8-.8,3.6-1.6,5.4-2.3a6.89,6.89,0,0,0,.8-.3c.4-.1.7-.3,1.1-.4,1.5-.6,3-1.2,4.4-1.8,1.9-.7,3.7-1.3,5.6-2,1-.3,1.9-.7,2.9-1,.4-.1.7-.3,1.1-.4,1.7-.6,3.3-1,5-1.5,2.5-.8,4.9-1.5,7.4-2.2l1.2-.3q5.4-1.5,10.8-2.7h0l7.3-1.5c2-.4,3.9-.7,5.9-1h.2l6-.9c2-.3,3.9-.5,5.8-.7.3,0,.6-.1,1-.1s.7-.1,1-.1c1.3-.1,2.7-.3,4-.4,2-.1,4-.3,6-.4a10.87,10.87,0,0,0,1.8-.1h1.4c1,0,1.9-.1,2.9-.1h6c.9,0,1.7.1,2.6.1h1.3a12.1,12.1,0,0,1,1.9.1c1.9.1,3.7.2,5.6.4,1.3.1,2.7.3,4,.4a1943680319983.27,1943680319983.27,0,0,0,1.4.2c1.7.2,3.4.4,5.1.7s3.3.5,5,.8c.4.1.8.1,1.1.2,1.2.2,2.4.5,3.6.8,1.5.4,3.1.7,4.5,1.1,1,.3,1.9.5,2.8.8.2.1.5.1.7.2a3.09,3.09,0,0,0,.8.2c1.4.4,2.8.9,4.2,1.4s2.8,1,4.1,1.5c.2.1.5.2.7.3l.6.3c.9.4,1.8.7,2.7,1.1,1.3.6,2.6,1.2,3.9,1.9.6.3,1.2.7,1.8,1,.3.1.5.3.8.4l1.2.6c1.3.8,2.6,1.6,3.8,2.4a17.68,17.68,0,0,1,2.2,1.6,2.18,2.18,0,0,0,.8.5c.2.2.5.3.7.5,1.3,1,2.5,2,3.7,3a19.2,19.2,0,0,0,1.5,1.4,11.41,11.41,0,0,1,1.1,1.1c.4.4.8.7,1.2,1.1a32.34,32.34,0,0,1,3.8,4.5.1.1,0,0,0,.1.1,6.73,6.73,0,0,1,.7,1.1,52.5,52.5,0,0,1,3.3,4.9c.1.1.1.3.2.4a45.38,45.38,0,0,1,3.5,7.8l35.2,94.8a48.93,48.93,0,0,0-7-13.2,6.73,6.73,0,0,1-.7-1.1,45.27,45.27,0,0,0-5.1-5.7,11.41,11.41,0,0,1-1.1-1.1,73.8,73.8,0,0,0-5.9-5,2.18,2.18,0,0,0-.8-.5,81.22,81.22,0,0,0-7.2-4.6c-.3-.1-.5-.3-.8-.4a81.87,81.87,0,0,0-8.4-4l-.6-.3a94,94,0,0,0-9.8-3.4c-.2-.1-.5-.1-.7-.2-3.5-1-7.2-1.9-11-2.7a117.71,117.71,0,0,0-11.9-1.8,1.7,1.7,0,0,1-.7-.1c-3.8-.4-7.6-.7-11.5-.8h-1.3c-3.8-.1-7.6-.1-11.5,0h-1.4c-3.9.1-7.9.4-11.9.8-.3,0-.6.1-1,.1-4.3.4-8.6,1-12.9,1.7h-.1c-4.4.7-8.8,1.5-13.2,2.5h0q-6,1.35-12,3c-2.5.7-4.9,1.5-7.4,2.2-2,.6-4.1,1.2-6.1,1.9-1,.3-1.9.7-2.9,1-3.4,1.2-6.7,2.4-10,3.8-.4.1-.7.3-1.1.4-4,1.6-8,3.4-11.9,5.2l-.6.3c-3.8,1.8-7.6,3.7-11.2,5.7-.2.1-.5.3-.7.4-3.8,2.1-7.4,4.2-11,6.4-.2.1-.4.3-.6.4-3.4,2.2-6.8,4.4-10,6.7a5.5,5.5,0,0,0-.9.7q-5,3.6-9.6,7.5l-.1.1c-3.1,2.6-6.1,5.3-8.9,8l-.7.7c-2.8,2.8-5.5,5.6-8.1,8.5s-4.8,5.8-6.9,8.7c-.2.3-.4.5-.6.8-1.9,2.7-3.6,5.4-5.2,8-.2.4-.4.7-.6,1.1a70.91,70.91,0,0,0-3.9,7.8l-.6,1.5a70.87,70.87,0,0,0-2.6,7.3c-.1.3-.2.5-.3.8a63.68,63.68,0,0,0-1.8,8.2,4.1,4.1,0,0,0-.1,1.1c-.3,2.2-.4,4.3-.5,6.5v2.3c.1,1.8.2,3.5.4,5.3.1.7.2,1.4.3,2.2a53.46,53.46,0,0,0,1.7,6.9h0l-35.2-94.8a43.41,43.41,0,0,1-1.7-6.9l-.3-2.1a45.53,45.53,0,0,1-.4-5.3,17.65,17.65,0,0,1,0-2.3,48.65,48.65,0,0,1,.5-6.5,4.1,4.1,0,0,1,.1-1.1v-.2a56.22,56.22,0,0,1,1.7-7.7c0-.1.1-.2.1-.3.1-.3.2-.5.3-.8.5-1.6,1-3.2,1.6-4.9.3-.8.7-1.6,1-2.4l.6-1.5c.2-.4.3-.9.5-1.3q1.05-2.4,2.4-4.8a15.05,15.05,0,0,1,1-1.7c.2-.4.4-.7.6-1.1s.6-1.1.9-1.6c.8-1.4,1.7-2.7,2.6-4.1.5-.8,1.1-1.5,1.6-2.3.2-.3.4-.5.6-.8a5.5,5.5,0,0,1,.7-.9c.9-1.3,1.9-2.5,2.9-3.8s2.1-2.5,3.1-3.8l.2-.2A22.48,22.48,0,0,0,1592.6,1091.9Z" transform="translate(459.1 355.4)" fill="url(#Безымянный_градиент_23)"/><path d="M1816.1,1124.7c-63.5-12.5-149.1,16.8-191.3,65.4s-24.9,98,38.5,110.5,149-16.8,191.2-65.4S1879.5,1137.2,1816.1,1124.7Z" transform="translate(459.1 355.4)" fill="url(#Безымянный_градиент_24)"/><path d="M1599.8,1200c1.4-1.5,2.8-3,4.2-4.4l2-2a6.47,6.47,0,0,1,.9-.8l1.5-1.5c1.5-1.4,3-2.8,4.6-4.2s3.2-2.8,4.9-4.2l.1-.1a.35.35,0,0,1,.2-.1c1.6-1.3,3.1-2.6,4.7-3.8l5.3-4.1c.6-.5,1.3-.9,1.9-1.4a8.34,8.34,0,0,1,1.2-.8c.8-.6,1.6-1.2,2.4-1.7l5.7-3.9c1.4-.9,2.9-1.8,4.3-2.7.3-.2.5-.3.8-.5s.5-.3.8-.5c1.9-1.2,3.9-2.4,5.9-3.5s3.9-2.3,5.9-3.4c.4-.2.7-.4,1.1-.6s.6-.3.9-.5c1.3-.7,2.5-1.4,3.8-2,1.9-1,3.9-2,5.9-3,1.4-.7,2.9-1.4,4.3-2.1a3,3,0,0,0,.8-.4c.3-.1.6-.3.9-.4,2-.9,4.1-1.9,6.1-2.8,2.2-1,4.5-1.9,6.8-2.9.3-.1.7-.3,1-.4s.9-.3,1.3-.5c1.8-.7,3.7-1.5,5.5-2.2,2.3-.9,4.7-1.7,7-2.5,1.2-.4,2.4-.9,3.6-1.3.5-.2.9-.3,1.4-.5,2.1-.7,4.2-1.2,6.2-1.9,3.1-.9,6.1-1.9,9.2-2.8.5-.1,1-.3,1.5-.4q6.75-1.8,13.5-3.3h.1c3-.7,6-1.3,9.1-1.9,2.5-.5,4.9-.9,7.4-1.3h.3c2.5-.4,5-.8,7.4-1.1l7.3-.9c.4,0,.8-.1,1.2-.1s.8-.1,1.2-.1c1.7-.2,3.4-.3,5-.5,2.5-.2,5-.3,7.5-.5a17.7,17.7,0,0,0,2.3-.1,9.7,9.7,0,0,0,1.7-.1c1.2,0,2.4-.1,3.6-.1h7.5c1.1,0,2.1.1,3.2.1a8.6,8.6,0,0,1,1.6.1,19.27,19.27,0,0,1,2.4.1c2.3.1,4.7.3,7,.5,1.7.1,3.3.3,5,.5.3,0,.6.1.9.1a2,2,0,0,1,.8.1c2.1.3,4.3.5,6.4.9s4.1.7,6.2,1l1.4.3,4.5.9c1.9.4,3.8.9,5.6,1.4,1.2.3,2.4.7,3.5,1a2.92,2.92,0,0,0,.9.2l1,.3c1.8.5,3.5,1.1,5.2,1.7s3.4,1.2,5.1,1.9a3.55,3.55,0,0,1,.9.4c.2.1.5.2.7.3,1.1.5,2.2.9,3.3,1.4,1.7.8,3.3,1.5,4.9,2.3.8.4,1.5.8,2.2,1.2a9.29,9.29,0,0,0,1,.5c.5.3,1,.5,1.4.8,1.6,1,3.2,1.9,4.8,2.9.9.6,1.8,1.3,2.7,1.9a5.5,5.5,0,0,1,.9.7,5.5,5.5,0,0,1,.9.7c1.6,1.2,3.1,2.5,4.6,3.7l1.8,1.8a9.27,9.27,0,0,1,1.4,1.4c.5.5,1,.9,1.5,1.4,1.7,1.8,3.3,3.7,4.8,5.6a.1.1,0,0,0,.1.1c.3.4.6.9.9,1.4a59.14,59.14,0,0,1,4.1,6.1c.1.2.1.4.2.5a59.72,59.72,0,0,1,4.3,9.7l51.6,152.3a56.13,56.13,0,0,0-4.3-9.7,69,69,0,0,0-4.3-6.7c-.3-.4-.6-.9-.9-1.3a69.61,69.61,0,0,0-6.3-7.1l-1.4-1.4c-2.3-2.1-4.7-4.2-7.3-6.2a5.5,5.5,0,0,1-.9-.7c-2.8-2-5.8-3.9-8.9-5.7a3.13,3.13,0,0,0-1-.5c-3.3-1.8-6.7-3.4-10.4-5-.2-.1-.5-.2-.7-.3a124.21,124.21,0,0,0-12.2-4.3,2.92,2.92,0,0,0-.9-.2,137.23,137.23,0,0,0-13.7-3.3c-4.8-1-9.8-1.7-14.8-2.3-.3,0-.6-.1-.9-.1-4.7-.5-9.5-.8-14.3-1a8.6,8.6,0,0,1-1.6-.1c-4.7-.1-9.5-.1-14.3,0a9.7,9.7,0,0,0-1.7.1c-4.9.2-9.8.5-14.8,1-.4,0-.8.1-1.2.1-5.3.5-10.7,1.2-16,2.1h-.2c-5.5.9-11,1.9-16.4,3.1h0c-5,1.1-10,2.4-14.9,3.7-3.1.8-6.1,1.8-9.2,2.8-2.5.8-5.1,1.5-7.6,2.4-1.2.4-2.4.9-3.6,1.3-4.2,1.5-8.4,3-12.5,4.7-.4.2-.9.3-1.4.5-5,2-9.9,4.2-14.8,6.5-.3.1-.5.3-.8.4-4.7,2.3-9.4,4.6-14,7.1-.3.2-.6.3-.9.5-4.7,2.6-9.2,5.2-13.7,8-.3.2-.5.3-.8.5-4.3,2.7-8.4,5.5-12.5,8.4a10.47,10.47,0,0,0-1.1.8q-6.15,4.5-12,9.3c-.1.1-.1.1-.2.1-3.9,3.2-7.6,6.6-11.1,10a6.47,6.47,0,0,1-.9.8c-3.5,3.5-6.9,7-10,10.6s-6,7.2-8.6,10.8c-.2.3-.5.7-.7,1a111.62,111.62,0,0,0-6.4,10c-.3.4-.5.9-.8,1.3-1.8,3.2-3.4,6.5-4.9,9.7-.3.6-.5,1.2-.8,1.8a83.12,83.12,0,0,0-3.3,9.1c-.1.3-.2.7-.3,1a81.31,81.31,0,0,0-2.2,10.2,6.6,6.6,0,0,0-.1,1.4,73.56,73.56,0,0,0-.6,8.1,28.1,28.1,0,0,0,.1,2.9c.1,2.2.3,4.4.5,6.6a25.12,25.12,0,0,0,.4,2.7,63.44,63.44,0,0,0,2.1,8.6h0l-51.6-152.3a63.44,63.44,0,0,1-2.1-8.6,25.12,25.12,0,0,1-.4-2.7,48.87,48.87,0,0,1-.5-6.6c0-1-.1-1.9-.1-2.9a56.23,56.23,0,0,1,.6-8.1,6.15,6.15,0,0,0,.1-1.3v-.3a82.45,82.45,0,0,1,2.1-9.6c0-.1.1-.2.1-.3.1-.3.2-.7.3-1,.6-2,1.2-4,2-6.1.4-1,.9-2,1.3-3a14.17,14.17,0,0,1,.8-1.8,11.11,11.11,0,0,1,.7-1.6q1.35-3,3-6l1.2-2.1a9.13,9.13,0,0,1,.8-1.3c.4-.7.8-1.4,1.2-2q1.5-2.55,3.3-5.1c.6-.9,1.3-1.9,2-2.8a8.65,8.65,0,0,0,.7-1c.3-.4.5-.8.8-1.2,1.2-1.6,2.4-3.1,3.6-4.7s2.6-3.1,3.9-4.7c.1-.1.2-.2.2-.3C1597.3,1202.8,1598.5,1201.4,1599.8,1200Z" transform="translate(459.1 355.4)" fill="url(#Безымянный_градиент_25)"/><path d="M1885.9,1275.1c-79-15.5-185.7,20.9-238.2,81.4s-31.1,122.1,47.9,137.6,185.6-20.9,238.1-81.4S1964.8,1290.7,1885.9,1275.1Z" transform="translate(459.1 355.4)" fill="url(#Безымянный_градиент_26)"/><path d="M787.5,392.8c-18.6,0-38.2-16.6-43.7-37s5.2-37,23.8-37,38.2,16.6,43.7,37S806.2,392.8,787.5,392.8Z" transform="translate(459.1 355.4)" fill="#fff"/><path d="M778.2,404.8c34.9,8,60.9,68.9,53.7,83.6-2.8,5.7-9.6,2.6-55.4-7.9-43.9-10.2-50.5-10.3-53.2-17.1C716.4,445.4,743.3,396.7,778.2,404.8Z" transform="translate(459.1 355.4)" fill="#fff"/></svg>